<?xml version="1.0" encoding="UTF-8"?>
<svg version="1.1" xmlns="http://www.w3.org/2000/svg" width="1024" height="1024">
<path d="M0 0 C3 0 3 0 5.3984375 2.25390625 C6.68621094 3.61322266 6.68621094 3.61322266 8 5 C17.44784885 13.33731223 27.80326852 20.62108609 38 28 C38.72525879 28.52529297 39.45051758 29.05058594 40.19775391 29.59179688 C62.48522921 45.67479507 85.8865329 60.09003715 109.6875 73.8125 C110.56656006 74.32240479 111.44562012 74.83230957 112.35131836 75.35766602 C113.16737549 75.82358154 113.98343262 76.28949707 114.82421875 76.76953125 C115.53666748 77.17792236 116.24911621 77.58631348 116.9831543 78.00708008 C118.98323365 78.9917457 120.82307647 79.54860086 123 80 C123 80.66 123 81.32 123 82 C123.71929688 82.27706787 124.43859375 82.55413574 125.1796875 82.83959961 C127.90972524 83.962857 130.50028321 85.21707656 133.125 86.56640625 C134.07890625 87.05173828 135.0328125 87.53707031 136.015625 88.03710938 C138.00679376 89.05484681 139.99637937 90.07568754 141.984375 91.09960938 C142.93828125 91.58365234 143.8921875 92.06769531 144.875 92.56640625 C145.73867188 93.00927979 146.60234375 93.45215332 147.4921875 93.90844727 C150.00390689 95.00170052 152.30226155 95.56941339 155 96 C155 96.66 155 97.32 155 98 C156.14275391 98.34224609 156.14275391 98.34224609 157.30859375 98.69140625 C161.29618427 100.10499654 165.08809352 101.78697888 168.94140625 103.52783203 C184.05351302 110.35334083 199.44210446 116.27804722 215 122 C216.13630859 122.42087891 217.27261719 122.84175781 218.44335938 123.27539062 C239.32794161 132.23182796 239.32794161 132.23182796 261.27734375 135.93359375 C265 136 265 136 266.48583984 137.41748047 C266.9855127 137.93971191 267.48518555 138.46194336 268 139 C270.79985297 140.19972766 273.74746284 140.90079644 276.6875 141.6875 C277.46544922 141.91244141 278.24339844 142.13738281 279.04492188 142.36914062 C284.18416044 143.77932368 288.67476423 144.2251814 294 144 C294 144.66 294 145.32 294 146 C297.87602877 146.86252919 301.75379394 147.71672451 305.63330078 148.56347656 C307.59633166 148.99371672 309.55794567 149.43040515 311.51953125 149.8671875 C312.76347656 150.13789063 314.00742187 150.40859375 315.2890625 150.6875 C316.43068848 150.93886719 317.57231445 151.19023437 318.74853516 151.44921875 C321.97128702 152.095683 321.97128702 152.095683 325.16943359 151.95703125 C328.2251121 152.00341726 329.34421278 152.6229479 332 154 C334.59278516 154.56969748 337.15115031 155.06862845 339.765625 155.5078125 C340.51785339 155.63815887 341.27008179 155.76850525 342.04510498 155.90280151 C343.63483692 156.17646954 345.22512618 156.44691708 346.81591797 156.71435547 C349.22931295 157.12150997 351.64001612 157.54242999 354.05078125 157.96484375 C355.60141958 158.23000383 357.15219689 158.49435263 358.703125 158.7578125 C359.41486877 158.88278107 360.12661255 159.00774963 360.85992432 159.13650513 C364.40606632 159.72305961 367.73326212 160.04196108 371.33105469 159.95263672 C375 160 375 160 378 162 C378.99 162.33 379.98 162.66 381 163 C381.87449908 178.21994225 382.14414786 193.38306719 382.12939453 208.62597656 C382.13075348 211.01884996 382.13253616 213.41172315 382.13470459 215.80459595 C382.13922324 222.2433846 382.1375117 228.68215703 382.1343255 235.12094593 C382.13253223 239.16349408 382.13288881 243.20604022 382.13381577 247.24858856 C382.13404561 248.26246323 382.13404561 248.26246323 382.13428011 249.29682021 C382.13459992 250.67105486 382.13492413 252.04528951 382.1352527 253.41952416 C382.1380915 266.25094904 382.13484708 279.08236673 382.12945233 291.91379043 C382.12499801 302.84487432 382.125752 313.77594756 382.13037109 324.70703125 C382.13576661 337.48101722 382.13780423 350.25499688 382.13475883 363.02898383 C382.13444038 364.40119664 382.13412601 365.77340945 382.13381577 367.14562225 C382.13366149 367.82028336 382.13350721 368.49494446 382.13334826 369.19004984 C382.13249699 373.86809841 382.13396659 378.54614166 382.13629532 383.22418976 C382.15694873 431.60984324 382.15694873 431.60984324 381.57373047 451.04980469 C381.53762728 452.2736298 381.50152409 453.49745491 381.46432686 454.75836563 C380.0407141 495.12138301 373.22896126 535.63996943 361.48925781 574.28271484 C361.1640918 575.3598877 360.83892578 576.43706055 360.50390625 577.546875 C360.21330322 578.48370117 359.9227002 579.42052734 359.62329102 580.38574219 C358.88990446 582.99243124 358.88990446 582.99243124 359.03100586 585.71582031 C359 588 359 588 357 590 C356.28764498 591.74408558 355.64481963 593.51686912 355.0390625 595.30078125 C354.65661377 596.40784424 354.27416504 597.51490723 353.88012695 598.65551758 C353.46593506 599.86232178 353.05174316 601.06912598 352.625 602.3125 C340.44240063 637.13806488 325.2761662 670.52365212 306 702 C305.53754883 702.76328613 305.07509766 703.52657227 304.59863281 704.31298828 C299.51371607 712.69874023 294.14646445 720.85139709 288.48950195 728.86328125 C286.59817663 731.55955077 285.04782088 733.85653735 284 737 C282.34739729 738.68061293 280.6787874 740.34554286 279 742 C277.59121327 743.80749995 276.2171218 745.6424626 274.875 747.5 C267.8475876 757.00218221 260.10571152 765.84205789 252.140625 774.56640625 C249.14212375 777.97528632 246.37879446 781.55309818 243.62890625 785.1640625 C243.09136719 785.76992188 242.55382812 786.37578125 242 787 C241.34 787 240.68 787 240 787 C239.74041504 787.58483154 239.48083008 788.16966309 239.21337891 788.7722168 C237.91356092 791.15870354 236.51043278 792.73302211 234.5859375 794.64453125 C233.90660156 795.32193359 233.22726562 795.99933594 232.52734375 796.69726562 C231.81707031 797.39529297 231.10679687 798.09332031 230.375 798.8125 C229.68792969 799.49892578 229.00085938 800.18535156 228.29296875 800.89257812 C224.24522053 804.90615211 220.08831278 808.74184356 215.77294922 812.46557617 C213.59754521 814.34831016 211.48831863 816.29806206 209.375 818.25 C203.76849986 823.30182357 197.87601251 827.92821769 191.89941406 832.52880859 C190.01227156 833.99049506 188.14196646 835.47165296 186.2734375 836.95703125 C158.07486797 859.18568124 126.77451842 877.44124029 95 894 C93.51814209 894.7748877 93.51814209 894.7748877 92.00634766 895.56542969 C77.4105318 903.15457155 62.53096108 910.04452908 47.32440186 916.31338501 C42.77924294 918.20406627 38.3232962 920.24257941 33.8740387 922.34823608 C3.87339219 936.42280552 3.87339219 936.42280552 -10.15380859 931.64477539 C-14.61731692 929.8360394 -18.87654265 927.81513633 -23.09960938 925.50146484 C-26.91535707 923.52614091 -30.84761831 922.17897888 -34.92675781 920.8527832 C-37 920 -37 920 -38 918 C-39.65963854 917.63327284 -41.32804748 917.30571828 -43 917 C-44.6875455 916.36425066 -46.35659596 915.67801877 -48.0078125 914.953125 C-48.98226318 914.52620361 -49.95671387 914.09928223 -50.96069336 913.65942383 C-52.00491455 913.19431396 -53.04913574 912.7292041 -54.125 912.25 C-55.2085376 911.77135498 -56.2920752 911.29270996 -57.40844727 910.79956055 C-67.20579707 906.43343403 -76.86585941 901.79784149 -86.49072266 897.06542969 C-88.1176001 896.26927246 -88.1176001 896.26927246 -89.77734375 895.45703125 C-90.73890381 894.98241455 -91.70046387 894.50779785 -92.69116211 894.01879883 C-94.88435897 892.86543183 -94.88435897 892.86543183 -97 893 C-97 892.34 -97 891.68 -97 891 C-97.65226562 890.76023437 -98.30453125 890.52046875 -98.9765625 890.2734375 C-102.90569245 888.61853264 -106.61786383 886.63493648 -110.375 884.625 C-111.46941406 884.04492188 -111.46941406 884.04492188 -112.5859375 883.453125 C-114.72968231 882.31234651 -116.8662005 881.15926122 -119 880 C-119.68094727 879.63358398 -120.36189453 879.26716797 -121.06347656 878.88964844 C-125.88224287 876.23551427 -125.88224287 876.23551427 -127 874 C-128.6630584 873.32438252 -130.33094605 872.66066719 -132 872 C-140.66124956 867.58544839 -148.65567246 862.25007912 -156.17578125 856.1015625 C-158.21552049 854.65538681 -158.21552049 854.65538681 -162 855 C-162.24105469 854.40445313 -162.48210937 853.80890625 -162.73046875 853.1953125 C-164.26041938 850.5496748 -165.75844843 849.53868662 -168.3125 847.875 C-180.79867901 839.46079279 -192.64468416 829.87418768 -204 820 C-204 820.66 -204 821.32 -204 822 C-204.99 822.33 -205.98 822.66 -207 823 C-207.020625 822.154375 -207.04125 821.30875 -207.0625 820.4375 C-208.73812752 814.29353244 -213.96102893 810.88347998 -218.6640625 806.859375 C-223.43887317 802.68936262 -227.8688383 798.20479321 -232.3125 793.6875 C-233.88957754 792.08492403 -235.46890596 790.48455913 -237.05078125 788.88671875 C-237.73825439 788.18764404 -238.42572754 787.48856934 -239.1340332 786.76831055 C-241.07967993 784.82431474 -241.07967993 784.82431474 -244 783 C-244 782.34 -244 781.68 -244 781 C-245.25685668 779.57504232 -245.25685668 779.57504232 -246.9375 778.0625 C-251.21413607 773.89683453 -254.90242092 769.35314401 -258.63134766 764.69824219 C-260.18438001 762.77121881 -261.75337299 760.85784066 -263.32421875 758.9453125 C-264.48698621 757.52604744 -265.64974666 756.10677663 -266.8125 754.6875 C-267.36373535 754.0179126 -267.9149707 753.3483252 -268.48291016 752.65844727 C-270.88940618 749.71003039 -273.19783776 746.7822384 -275.26171875 743.58203125 C-276.74412106 740.92285397 -276.74412106 740.92285397 -279 740 C-280.00872408 738.24286772 -281.01478949 736.48392514 -281.98828125 734.70703125 C-283.10246479 732.8271154 -284.42554089 731.50289279 -286 730 C-286.67533946 728.67103844 -287.3408837 727.33708187 -288 726 C-289.59803179 723.37165823 -291.30281756 720.81517004 -293 718.25 C-293.45117188 717.55261719 -293.90234375 716.85523438 -294.3671875 716.13671875 C-295.52416268 714.38756397 -296.75653234 712.68876351 -298 711 C-298.66 711 -299.32 711 -300 711 C-300.10699219 710.28328125 -300.21398437 709.5665625 -300.32421875 708.828125 C-301.06448807 705.73011929 -302.19407539 703.48698137 -303.8125 700.75 C-304.31394531 699.87859375 -304.81539063 699.0071875 -305.33203125 698.109375 C-306.82042728 695.84688296 -306.82042728 695.84688296 -309.19921875 695.203125 C-310.09060547 695.10257813 -310.09060547 695.10257813 -311 695 C-310.86851562 693.75863281 -310.86851562 693.75863281 -310.734375 692.4921875 C-311.08607599 687.86835384 -312.89312746 685.04178837 -315.25 681.125 C-319.5560511 673.68563298 -323.5455649 666.13316886 -327.375 658.4375 C-327.87418945 657.43928223 -328.37337891 656.44106445 -328.88769531 655.41259766 C-337 639.07584921 -337 639.07584921 -337 636 C-337.99 635.67 -338.98 635.34 -340 635 C-339.34 635 -338.68 635 -338 635 C-339.36983503 631.83884224 -339.9890638 631.0072908 -343 629 C-342.34 629 -341.68 629 -341 629 C-342.65 624.71 -344.3 620.42 -346 616 C-346.66 616 -347.32 616 -348 616 C-348.07476562 614.95585938 -348.14953125 613.91171875 -348.2265625 612.8359375 C-349.01938599 606.51282247 -351.29783729 600.61984935 -353.375 594.625 C-361 572.34032258 -361 572.34032258 -361 568 C-361.66 567.67 -362.32 567.34 -363 567 C-363.45703125 565.19921875 -363.45703125 565.19921875 -363.8125 562.6875 C-364.77699057 556.89290187 -366.05504098 551.20641821 -367.4375 545.5 C-367.64286377 544.61530029 -367.84822754 543.73060059 -368.05981445 542.8190918 C-368.36858521 541.56286011 -368.36858521 541.56286011 -368.68359375 540.28125 C-368.86462646 539.52908203 -369.04565918 538.77691406 -369.23217773 538.00195312 C-370.10215544 535.73364878 -371.1818988 534.58046752 -373 533 C-372.34 532.67 -371.68 532.34 -371 532 C-371.495 530.515 -371.495 530.515 -372 529 C-372.33 529 -372.66 529 -373 529 C-373.495 526.03 -373.495 526.03 -374 523 C-373.34 523 -372.68 523 -372 523 C-372.15819214 522.13725464 -372.15819214 522.13725464 -372.31958008 521.25708008 C-376.2193113 499.69747 -379.09091318 477.91422965 -379.62182617 455.98730469 C-379.74096339 452.14983211 -379.97203351 449.2964243 -382 446 C-383.07228916 441.28192771 -383.0829243 436.80960926 -383 432 C-382.34 432 -381.68 432 -381 432 C-380.95368606 420.33455716 -380.91813555 408.66913615 -380.89637566 397.00362015 C-380.8859327 391.58701584 -380.87176407 386.17047438 -380.84912109 380.75390625 C-380.82741109 375.5278944 -380.81543523 370.30194305 -380.81024551 365.07588959 C-380.80654645 363.0807678 -380.79932324 361.08564936 -380.78853989 359.09055328 C-380.77404954 356.29890249 -380.77202104 353.50750259 -380.77294922 350.71582031 C-380.76575867 349.88863495 -380.75856812 349.06144958 -380.75115967 348.209198 C-380.76549195 344.23285724 -380.99848212 341.44104041 -383 338 C-383.25396729 335.93795776 -383.25396729 335.93795776 -383.25878906 333.72216797 C-383.26509338 332.88805389 -383.27139771 332.05393982 -383.27789307 331.19454956 C-383.2738446 330.30277008 -383.26979614 329.4109906 -383.265625 328.4921875 C-383.26753845 327.57035675 -383.2694519 326.648526 -383.27142334 325.69876099 C-383.27278249 323.75376105 -383.26910494 321.80875196 -383.26074219 319.86376953 C-383.25001447 316.87902611 -383.26065916 313.89488126 -383.2734375 310.91015625 C-383.27211634 309.020832 -383.26955484 307.13150812 -383.265625 305.2421875 C-383.26967346 304.34635956 -383.27372192 303.45053162 -383.27789307 302.52755737 C-383.27158875 301.69974762 -383.26528442 300.87193787 -383.25878906 300.01904297 C-383.25719788 299.28942352 -383.25560669 298.55980408 -383.25396729 297.80807495 C-383 296 -383 296 -381 294 C-380.68732026 290.74445335 -380.68732026 290.74445335 -380.734375 286.91015625 C-380.73246155 286.20982773 -380.7305481 285.50949921 -380.72857666 284.78794861 C-380.72721507 283.30597576 -380.7309097 281.82399098 -380.73925781 280.34204102 C-380.74994223 278.07475915 -380.73937047 275.80827251 -380.7265625 273.54101562 C-380.72788441 272.10156075 -380.73044747 270.66210637 -380.734375 269.22265625 C-380.73663086 267.91047119 -380.73888672 266.59828613 -380.74121094 265.24633789 C-380.74667645 261.85258936 -380.74667645 261.85258936 -383 259 C-383.1953125 256.51953125 -383.1953125 256.51953125 -383.125 253.8125 C-383.10695313 252.91144531 -383.08890625 252.01039063 -383.0703125 251.08203125 C-383.04710937 250.39496094 -383.02390625 249.70789063 -383 249 C-382.01 249.33 -381.02 249.66 -380 250 C-380.00222061 248.91671921 -380.00444122 247.83343842 -380.00672913 246.71733093 C-380.02698045 236.51997853 -380.04198177 226.32263019 -380.05181217 216.12526226 C-380.05703592 210.88240917 -380.0641244 205.63957228 -380.07543945 200.39672852 C-380.08628631 195.33930616 -380.09228067 190.28189941 -380.09487724 185.22446632 C-380.09672824 183.2927202 -380.10034264 181.36097496 -380.10573006 179.42923546 C-380.1129643 176.72843946 -380.11398993 174.02770839 -380.11352539 171.3269043 C-380.11712067 170.52417587 -380.12071594 169.72144745 -380.12442017 168.89439392 C-380.11838796 165.6640487 -380.02911701 163.08735103 -379 160 C-378.12456543 160.03335449 -377.24913086 160.06670898 -376.34716797 160.10107422 C-366.76918567 160.30294032 -357.80503019 159.29800638 -348.39697266 157.54638672 C-346.08116979 157.11687073 -343.76195548 156.71159822 -341.44140625 156.30859375 C-339.96329184 156.04305357 -338.48541631 155.77617934 -337.0078125 155.5078125 C-336.31632111 155.3868924 -335.62482971 155.26597229 -334.91238403 155.14138794 C-333.26077895 154.82796788 -331.62715654 154.42236604 -330 154 C-329.67 153.34 -329.34 152.68 -329 152 C-327.22109375 152.08894531 -327.22109375 152.08894531 -325.40625 152.1796875 C-318.60323567 152.17702174 -312.11379406 150.58492374 -305.5 149.125 C-304.21351563 148.85558594 -302.92703125 148.58617187 -301.6015625 148.30859375 C-296.7659851 147.28819445 -296.7659851 147.28819445 -292 146 C-291.67 145.34 -291.34 144.68 -291 144 C-290.00355469 144.04125 -289.00710938 144.0825 -287.98046875 144.125 C-283.84089578 143.9950036 -280.2463567 143.17499655 -276.3125 142 C-272.43030932 140.86112147 -269.10213247 140 -265 140 C-265.33 139.01 -265.66 138.02 -266 137 C-265.34 137 -264.68 137 -264 137 C-264 137.66 -264 138.32 -264 139 C-263.2575 138.690625 -262.515 138.38125 -261.75 138.0625 C-259.47272458 137.18264359 -257.36053109 136.57496244 -255 136 C-241.66240911 132.25925568 -228.54728983 127.88816996 -215.5 123.25 C-214.82883148 123.01202698 -214.15766296 122.77405396 -213.46615601 122.52886963 C-206.89427473 120.19375287 -200.39335995 117.79178068 -194 115 C-194 114.34 -194 113.68 -194 113 C-193.44054687 112.92595947 -192.88109375 112.85191895 -192.3046875 112.77563477 C-184.29034662 111.46702304 -177.32581684 108.32642752 -170 104.9375 C-168.71535141 104.35269225 -167.4304369 103.76846834 -166.14526367 103.18481445 C-158.04095377 99.48668655 -150.01070737 95.64555482 -142.10351562 91.54077148 C-137.18954904 89 -137.18954904 89 -135 89 C-134.67 88.34 -134.34 87.68 -134 87 C-131.70496715 85.76630645 -129.41265785 84.61943837 -127.0625 83.5 C-103.98238097 72.20232969 -82.18449305 58.6599482 -60.9375 44.25 C-60.2949527 43.81432709 -59.6524054 43.37865417 -58.99038696 42.92977905 C-55.26826008 40.40116057 -51.56212968 37.85073327 -47.86590576 35.28442383 C-45.91761267 33.94328746 -43.9540476 32.62664132 -41.98876953 31.31054688 C-40.70175417 30.4315666 -39.41511962 29.55202841 -38.12890625 28.671875 C-37.52715073 28.27639465 -36.9253952 27.88091431 -36.30540466 27.47344971 C-33.55264261 25.5650665 -32.14338528 24.45334643 -31.11694336 21.20800781 C-31.07835205 20.47936523 -31.03976074 19.75072266 -31 19 C-30.34 19 -29.68 19 -29 19 C-28.67 19.66 -28.34 20.32 -28 21 C-13.38249387 11.2589388 -13.38249387 11.2589388 0 0 Z M260 137 C264 138 264 138 264 138 Z M-375 161 C-375 161.33 -375 161.66 -375 162 C-373.35 162 -371.7 162 -370 162 C-370 161.67 -370 161.34 -370 161 C-371.65 161 -373.3 161 -375 161 Z M-310 691 C-309 693 -309 693 -309 693 Z " fill="#969696" transform="translate(511,40)"/>
<path d="M0 0 C3 0 3 0 5.3984375 2.25390625 C6.68621094 3.61322266 6.68621094 3.61322266 8 5 C17.44784885 13.33731223 27.80326852 20.62108609 38 28 C38.72525879 28.52529297 39.45051758 29.05058594 40.19775391 29.59179688 C62.48522921 45.67479507 85.8865329 60.09003715 109.6875 73.8125 C110.56656006 74.32240479 111.44562012 74.83230957 112.35131836 75.35766602 C113.16737549 75.82358154 113.98343262 76.28949707 114.82421875 76.76953125 C115.53666748 77.17792236 116.24911621 77.58631348 116.9831543 78.00708008 C118.98323365 78.9917457 120.82307647 79.54860086 123 80 C123 80.66 123 81.32 123 82 C123.71929688 82.27706787 124.43859375 82.55413574 125.1796875 82.83959961 C127.90972524 83.962857 130.50028321 85.21707656 133.125 86.56640625 C134.07890625 87.05173828 135.0328125 87.53707031 136.015625 88.03710938 C138.00679376 89.05484681 139.99637937 90.07568754 141.984375 91.09960938 C142.93828125 91.58365234 143.8921875 92.06769531 144.875 92.56640625 C145.73867188 93.00927979 146.60234375 93.45215332 147.4921875 93.90844727 C150.00390689 95.00170052 152.30226155 95.56941339 155 96 C155 96.66 155 97.32 155 98 C156.14275391 98.34224609 156.14275391 98.34224609 157.30859375 98.69140625 C161.29618427 100.10499654 165.08809352 101.78697888 168.94140625 103.52783203 C184.05351302 110.35334083 199.44210446 116.27804722 215 122 C216.13630859 122.42087891 217.27261719 122.84175781 218.44335938 123.27539062 C239.32794161 132.23182796 239.32794161 132.23182796 261.27734375 135.93359375 C265 136 265 136 266.48583984 137.41748047 C266.9855127 137.93971191 267.48518555 138.46194336 268 139 C270.79985297 140.19972766 273.74746284 140.90079644 276.6875 141.6875 C277.46544922 141.91244141 278.24339844 142.13738281 279.04492188 142.36914062 C284.18416044 143.77932368 288.67476423 144.2251814 294 144 C294 144.66 294 145.32 294 146 C297.87602877 146.86252919 301.75379394 147.71672451 305.63330078 148.56347656 C307.59633166 148.99371672 309.55794567 149.43040515 311.51953125 149.8671875 C312.76347656 150.13789063 314.00742187 150.40859375 315.2890625 150.6875 C316.43068848 150.93886719 317.57231445 151.19023437 318.74853516 151.44921875 C321.97128702 152.095683 321.97128702 152.095683 325.16943359 151.95703125 C328.2251121 152.00341726 329.34421278 152.6229479 332 154 C334.59278516 154.56969748 337.15115031 155.06862845 339.765625 155.5078125 C340.51785339 155.63815887 341.27008179 155.76850525 342.04510498 155.90280151 C343.63483692 156.17646954 345.22512618 156.44691708 346.81591797 156.71435547 C349.22931295 157.12150997 351.64001612 157.54242999 354.05078125 157.96484375 C355.60141958 158.23000383 357.15219689 158.49435263 358.703125 158.7578125 C359.41486877 158.88278107 360.12661255 159.00774963 360.85992432 159.13650513 C364.40606632 159.72305961 367.73326212 160.04196108 371.33105469 159.95263672 C375 160 375 160 378 162 C378.99 162.33 379.98 162.66 381 163 C381.87449908 178.21994225 382.14414786 193.38306719 382.12939453 208.62597656 C382.13075348 211.01884996 382.13253616 213.41172315 382.13470459 215.80459595 C382.13922324 222.2433846 382.1375117 228.68215703 382.1343255 235.12094593 C382.13253223 239.16349408 382.13288881 243.20604022 382.13381577 247.24858856 C382.13404561 248.26246323 382.13404561 248.26246323 382.13428011 249.29682021 C382.13459992 250.67105486 382.13492413 252.04528951 382.1352527 253.41952416 C382.1380915 266.25094904 382.13484708 279.08236673 382.12945233 291.91379043 C382.12499801 302.84487432 382.125752 313.77594756 382.13037109 324.70703125 C382.13576661 337.48101722 382.13780423 350.25499688 382.13475883 363.02898383 C382.13444038 364.40119664 382.13412601 365.77340945 382.13381577 367.14562225 C382.13366149 367.82028336 382.13350721 368.49494446 382.13334826 369.19004984 C382.13249699 373.86809841 382.13396659 378.54614166 382.13629532 383.22418976 C382.15694873 431.60984324 382.15694873 431.60984324 381.57373047 451.04980469 C381.53762728 452.2736298 381.50152409 453.49745491 381.46432686 454.75836563 C380.0407141 495.12138301 373.22896126 535.63996943 361.48925781 574.28271484 C361.1640918 575.3598877 360.83892578 576.43706055 360.50390625 577.546875 C360.21330322 578.48370117 359.9227002 579.42052734 359.62329102 580.38574219 C358.88990446 582.99243124 358.88990446 582.99243124 359.03100586 585.71582031 C359 588 359 588 357 590 C356.28764498 591.74408558 355.64481963 593.51686912 355.0390625 595.30078125 C354.65661377 596.40784424 354.27416504 597.51490723 353.88012695 598.65551758 C353.46593506 599.86232178 353.05174316 601.06912598 352.625 602.3125 C340.44240063 637.13806488 325.2761662 670.52365212 306 702 C305.53754883 702.76328613 305.07509766 703.52657227 304.59863281 704.31298828 C299.51371607 712.69874023 294.14646445 720.85139709 288.48950195 728.86328125 C286.59817663 731.55955077 285.04782088 733.85653735 284 737 C282.34739729 738.68061293 280.6787874 740.34554286 279 742 C277.59121327 743.80749995 276.2171218 745.6424626 274.875 747.5 C267.8475876 757.00218221 260.10571152 765.84205789 252.140625 774.56640625 C249.14212375 777.97528632 246.37879446 781.55309818 243.62890625 785.1640625 C243.09136719 785.76992188 242.55382812 786.37578125 242 787 C241.34 787 240.68 787 240 787 C239.74041504 787.58483154 239.48083008 788.16966309 239.21337891 788.7722168 C237.91356092 791.15870354 236.51043278 792.73302211 234.5859375 794.64453125 C233.90660156 795.32193359 233.22726562 795.99933594 232.52734375 796.69726562 C231.81707031 797.39529297 231.10679687 798.09332031 230.375 798.8125 C229.68792969 799.49892578 229.00085938 800.18535156 228.29296875 800.89257812 C224.24522053 804.90615211 220.08831278 808.74184356 215.77294922 812.46557617 C213.59754521 814.34831016 211.48831863 816.29806206 209.375 818.25 C203.76849986 823.30182357 197.87601251 827.92821769 191.89941406 832.52880859 C190.01227156 833.99049506 188.14196646 835.47165296 186.2734375 836.95703125 C158.07486797 859.18568124 126.77451842 877.44124029 95 894 C93.51814209 894.7748877 93.51814209 894.7748877 92.00634766 895.56542969 C77.4105318 903.15457155 62.53096108 910.04452908 47.32440186 916.31338501 C42.77924294 918.20406627 38.3232962 920.24257941 33.8740387 922.34823608 C3.87339219 936.42280552 3.87339219 936.42280552 -10.15380859 931.64477539 C-14.61731692 929.8360394 -18.87654265 927.81513633 -23.09960938 925.50146484 C-26.91535707 923.52614091 -30.84761831 922.17897888 -34.92675781 920.8527832 C-37 920 -37 920 -38 918 C-39.65963854 917.63327284 -41.32804748 917.30571828 -43 917 C-44.6875455 916.36425066 -46.35659596 915.67801877 -48.0078125 914.953125 C-48.98226318 914.52620361 -49.95671387 914.09928223 -50.96069336 913.65942383 C-52.00491455 913.19431396 -53.04913574 912.7292041 -54.125 912.25 C-55.2085376 911.77135498 -56.2920752 911.29270996 -57.40844727 910.79956055 C-67.20579707 906.43343403 -76.86585941 901.79784149 -86.49072266 897.06542969 C-88.1176001 896.26927246 -88.1176001 896.26927246 -89.77734375 895.45703125 C-90.73890381 894.98241455 -91.70046387 894.50779785 -92.69116211 894.01879883 C-94.88435897 892.86543183 -94.88435897 892.86543183 -97 893 C-97 892.34 -97 891.68 -97 891 C-97.65226562 890.76023437 -98.30453125 890.52046875 -98.9765625 890.2734375 C-102.90569245 888.61853264 -106.61786383 886.63493648 -110.375 884.625 C-111.46941406 884.04492188 -111.46941406 884.04492188 -112.5859375 883.453125 C-114.72968231 882.31234651 -116.8662005 881.15926122 -119 880 C-119.68094727 879.63358398 -120.36189453 879.26716797 -121.06347656 878.88964844 C-125.88224287 876.23551427 -125.88224287 876.23551427 -127 874 C-128.6630584 873.32438252 -130.33094605 872.66066719 -132 872 C-140.66124956 867.58544839 -148.65567246 862.25007912 -156.17578125 856.1015625 C-158.21552049 854.65538681 -158.21552049 854.65538681 -162 855 C-162.24105469 854.40445313 -162.48210937 853.80890625 -162.73046875 853.1953125 C-164.26041938 850.5496748 -165.75844843 849.53868662 -168.3125 847.875 C-180.79867901 839.46079279 -192.64468416 829.87418768 -204 820 C-204 820.66 -204 821.32 -204 822 C-204.99 822.33 -205.98 822.66 -207 823 C-207.020625 822.154375 -207.04125 821.30875 -207.0625 820.4375 C-208.73812752 814.29353244 -213.96102893 810.88347998 -218.6640625 806.859375 C-223.43887317 802.68936262 -227.8688383 798.20479321 -232.3125 793.6875 C-233.88957754 792.08492403 -235.46890596 790.48455913 -237.05078125 788.88671875 C-237.73825439 788.18764404 -238.42572754 787.48856934 -239.1340332 786.76831055 C-241.07967993 784.82431474 -241.07967993 784.82431474 -244 783 C-244 782.34 -244 781.68 -244 781 C-245.25685668 779.57504232 -245.25685668 779.57504232 -246.9375 778.0625 C-251.21413607 773.89683453 -254.90242092 769.35314401 -258.63134766 764.69824219 C-260.18438001 762.77121881 -261.75337299 760.85784066 -263.32421875 758.9453125 C-264.48698621 757.52604744 -265.64974666 756.10677663 -266.8125 754.6875 C-267.36373535 754.0179126 -267.9149707 753.3483252 -268.48291016 752.65844727 C-270.88940618 749.71003039 -273.19783776 746.7822384 -275.26171875 743.58203125 C-276.74412106 740.92285397 -276.74412106 740.92285397 -279 740 C-280.00872408 738.24286772 -281.01478949 736.48392514 -281.98828125 734.70703125 C-283.10246479 732.8271154 -284.42554089 731.50289279 -286 730 C-286.67533946 728.67103844 -287.3408837 727.33708187 -288 726 C-289.59803179 723.37165823 -291.30281756 720.81517004 -293 718.25 C-293.45117188 717.55261719 -293.90234375 716.85523438 -294.3671875 716.13671875 C-295.52416268 714.38756397 -296.75653234 712.68876351 -298 711 C-298.66 711 -299.32 711 -300 711 C-300.10699219 710.28328125 -300.21398437 709.5665625 -300.32421875 708.828125 C-301.06448807 705.73011929 -302.19407539 703.48698137 -303.8125 700.75 C-304.31394531 699.87859375 -304.81539063 699.0071875 -305.33203125 698.109375 C-306.82042728 695.84688296 -306.82042728 695.84688296 -309.19921875 695.203125 C-310.09060547 695.10257813 -310.09060547 695.10257813 -311 695 C-310.86851562 693.75863281 -310.86851562 693.75863281 -310.734375 692.4921875 C-311.08607599 687.86835384 -312.89312746 685.04178837 -315.25 681.125 C-319.5560511 673.68563298 -323.5455649 666.13316886 -327.375 658.4375 C-327.87418945 657.43928223 -328.37337891 656.44106445 -328.88769531 655.41259766 C-337 639.07584921 -337 639.07584921 -337 636 C-337.99 635.67 -338.98 635.34 -340 635 C-339.34 635 -338.68 635 -338 635 C-339.36983503 631.83884224 -339.9890638 631.0072908 -343 629 C-342.34 629 -341.68 629 -341 629 C-342.65 624.71 -344.3 620.42 -346 616 C-346.66 616 -347.32 616 -348 616 C-348.07476562 614.95585938 -348.14953125 613.91171875 -348.2265625 612.8359375 C-349.01938599 606.51282247 -351.29783729 600.61984935 -353.375 594.625 C-361 572.34032258 -361 572.34032258 -361 568 C-361.66 567.67 -362.32 567.34 -363 567 C-363.45703125 565.19921875 -363.45703125 565.19921875 -363.8125 562.6875 C-364.77699057 556.89290187 -366.05504098 551.20641821 -367.4375 545.5 C-367.64286377 544.61530029 -367.84822754 543.73060059 -368.05981445 542.8190918 C-368.36858521 541.56286011 -368.36858521 541.56286011 -368.68359375 540.28125 C-368.86462646 539.52908203 -369.04565918 538.77691406 -369.23217773 538.00195312 C-370.10215544 535.73364878 -371.1818988 534.58046752 -373 533 C-372.34 532.67 -371.68 532.34 -371 532 C-371.495 530.515 -371.495 530.515 -372 529 C-372.33 529 -372.66 529 -373 529 C-373.495 526.03 -373.495 526.03 -374 523 C-373.34 523 -372.68 523 -372 523 C-372.15819214 522.13725464 -372.15819214 522.13725464 -372.31958008 521.25708008 C-376.2193113 499.69747 -379.09091318 477.91422965 -379.62182617 455.98730469 C-379.74096339 452.14983211 -379.97203351 449.2964243 -382 446 C-383.07228916 441.28192771 -383.0829243 436.80960926 -383 432 C-382.34 432 -381.68 432 -381 432 C-380.95368606 420.33455716 -380.91813555 408.66913615 -380.89637566 397.00362015 C-380.8859327 391.58701584 -380.87176407 386.17047438 -380.84912109 380.75390625 C-380.82741109 375.5278944 -380.81543523 370.30194305 -380.81024551 365.07588959 C-380.80654645 363.0807678 -380.79932324 361.08564936 -380.78853989 359.09055328 C-380.77404954 356.29890249 -380.77202104 353.50750259 -380.77294922 350.71582031 C-380.76575867 349.88863495 -380.75856812 349.06144958 -380.75115967 348.209198 C-380.76549195 344.23285724 -380.99848212 341.44104041 -383 338 C-383.25396729 335.93795776 -383.25396729 335.93795776 -383.25878906 333.72216797 C-383.26509338 332.88805389 -383.27139771 332.05393982 -383.27789307 331.19454956 C-383.2738446 330.30277008 -383.26979614 329.4109906 -383.265625 328.4921875 C-383.26753845 327.57035675 -383.2694519 326.648526 -383.27142334 325.69876099 C-383.27278249 323.75376105 -383.26910494 321.80875196 -383.26074219 319.86376953 C-383.25001447 316.87902611 -383.26065916 313.89488126 -383.2734375 310.91015625 C-383.27211634 309.020832 -383.26955484 307.13150812 -383.265625 305.2421875 C-383.26967346 304.34635956 -383.27372192 303.45053162 -383.27789307 302.52755737 C-383.27158875 301.69974762 -383.26528442 300.87193787 -383.25878906 300.01904297 C-383.25719788 299.28942352 -383.25560669 298.55980408 -383.25396729 297.80807495 C-383 296 -383 296 -381 294 C-380.68732026 290.74445335 -380.68732026 290.74445335 -380.734375 286.91015625 C-380.73246155 286.20982773 -380.7305481 285.50949921 -380.72857666 284.78794861 C-380.72721507 283.30597576 -380.7309097 281.82399098 -380.73925781 280.34204102 C-380.74994223 278.07475915 -380.73937047 275.80827251 -380.7265625 273.54101562 C-380.72788441 272.10156075 -380.73044747 270.66210637 -380.734375 269.22265625 C-380.73663086 267.91047119 -380.73888672 266.59828613 -380.74121094 265.24633789 C-380.74667645 261.85258936 -380.74667645 261.85258936 -383 259 C-383.1953125 256.51953125 -383.1953125 256.51953125 -383.125 253.8125 C-383.10695313 252.91144531 -383.08890625 252.01039063 -383.0703125 251.08203125 C-383.04710937 250.39496094 -383.02390625 249.70789063 -383 249 C-382.01 249.33 -381.02 249.66 -380 250 C-380.00222061 248.91671921 -380.00444122 247.83343842 -380.00672913 246.71733093 C-380.02698045 236.51997853 -380.04198177 226.32263019 -380.05181217 216.12526226 C-380.05703592 210.88240917 -380.0641244 205.63957228 -380.07543945 200.39672852 C-380.08628631 195.33930616 -380.09228067 190.28189941 -380.09487724 185.22446632 C-380.09672824 183.2927202 -380.10034264 181.36097496 -380.10573006 179.42923546 C-380.1129643 176.72843946 -380.11398993 174.02770839 -380.11352539 171.3269043 C-380.11712067 170.52417587 -380.12071594 169.72144745 -380.12442017 168.89439392 C-380.11838796 165.6640487 -380.02911701 163.08735103 -379 160 C-378.12456543 160.03335449 -377.24913086 160.06670898 -376.34716797 160.10107422 C-366.76918567 160.30294032 -357.80503019 159.29800638 -348.39697266 157.54638672 C-346.08116979 157.11687073 -343.76195548 156.71159822 -341.44140625 156.30859375 C-339.96329184 156.04305357 -338.48541631 155.77617934 -337.0078125 155.5078125 C-336.31632111 155.3868924 -335.62482971 155.26597229 -334.91238403 155.14138794 C-333.26077895 154.82796788 -331.62715654 154.42236604 -330 154 C-329.67 153.34 -329.34 152.68 -329 152 C-327.22109375 152.08894531 -327.22109375 152.08894531 -325.40625 152.1796875 C-318.60323567 152.17702174 -312.11379406 150.58492374 -305.5 149.125 C-304.21351563 148.85558594 -302.92703125 148.58617187 -301.6015625 148.30859375 C-296.7659851 147.28819445 -296.7659851 147.28819445 -292 146 C-291.67 145.34 -291.34 144.68 -291 144 C-290.00355469 144.04125 -289.00710938 144.0825 -287.98046875 144.125 C-283.84089578 143.9950036 -280.2463567 143.17499655 -276.3125 142 C-272.43030932 140.86112147 -269.10213247 140 -265 140 C-265.33 139.01 -265.66 138.02 -266 137 C-265.34 137 -264.68 137 -264 137 C-264 137.66 -264 138.32 -264 139 C-263.2575 138.690625 -262.515 138.38125 -261.75 138.0625 C-259.47272458 137.18264359 -257.36053109 136.57496244 -255 136 C-241.66240911 132.25925568 -228.54728983 127.88816996 -215.5 123.25 C-214.82883148 123.01202698 -214.15766296 122.77405396 -213.46615601 122.52886963 C-206.89427473 120.19375287 -200.39335995 117.79178068 -194 115 C-194 114.34 -194 113.68 -194 113 C-193.44054687 112.92595947 -192.88109375 112.85191895 -192.3046875 112.77563477 C-184.29034662 111.46702304 -177.32581684 108.32642752 -170 104.9375 C-168.71535141 104.35269225 -167.4304369 103.76846834 -166.14526367 103.18481445 C-158.04095377 99.48668655 -150.01070737 95.64555482 -142.10351562 91.54077148 C-137.18954904 89 -137.18954904 89 -135 89 C-134.67 88.34 -134.34 87.68 -134 87 C-131.70496715 85.76630645 -129.41265785 84.61943837 -127.0625 83.5 C-103.98238097 72.20232969 -82.18449305 58.6599482 -60.9375 44.25 C-60.2949527 43.81432709 -59.6524054 43.37865417 -58.99038696 42.92977905 C-55.26826008 40.40116057 -51.56212968 37.85073327 -47.86590576 35.28442383 C-45.91761267 33.94328746 -43.9540476 32.62664132 -41.98876953 31.31054688 C-40.70175417 30.4315666 -39.41511962 29.55202841 -38.12890625 28.671875 C-37.52715073 28.27639465 -36.9253952 27.88091431 -36.30540466 27.47344971 C-33.55264261 25.5650665 -32.14338528 24.45334643 -31.11694336 21.20800781 C-31.07835205 20.47936523 -31.03976074 19.75072266 -31 19 C-30.34 19 -29.68 19 -29 19 C-28.67 19.66 -28.34 20.32 -28 21 C-13.38249387 11.2589388 -13.38249387 11.2589388 0 0 Z M-6.625 124.25 C-30.87463533 143.5791689 -58.52615382 158.78317456 -86 173 C-86.7852002 173.40653809 -87.57040039 173.81307617 -88.37939453 174.23193359 C-92.16857169 176.18170436 -95.98081271 178.07783942 -99.81542969 179.93652344 C-102.40656917 181.19792304 -104.98770179 182.47904409 -107.5703125 183.7578125 C-155.72460736 207.43175411 -207.48989736 223.68571693 -259.41186523 236.81835938 C-263.54521608 237.87200137 -267.66584171 238.9728063 -271.78675842 240.07385254 C-272.82885239 240.35202757 -272.82885239 240.35202757 -273.89199877 240.6358223 C-275.59471349 241.09036974 -277.29736329 241.54516039 -279 242 C-279.07041901 269.90552948 -279.12314801 297.81104542 -279.15543652 325.71664619 C-279.17083432 338.67685053 -279.19178645 351.63699932 -279.22631836 364.59716797 C-279.25643969 375.90749938 -279.27562632 387.21779051 -279.28226548 398.52816093 C-279.28613967 404.5039538 -279.29509229 410.47963155 -279.31719017 416.45538712 C-279.40501789 441.16317858 -279.30950574 465.47736182 -276 490 C-275.78424278 491.72870029 -275.5696071 493.45754112 -275.35636902 495.18655396 C-268.83119205 547.94620102 -245.41338426 602.11320217 -216 646 C-215.54560547 646.68562012 -215.09121094 647.37124023 -214.62304688 648.07763672 C-204.9260706 662.67542295 -194.24685144 676.56547322 -183 690 C-182.3782061 690.7473793 -182.3782061 690.7473793 -181.74385071 691.50985718 C-174.45623089 700.24881096 -166.80992628 708.50797585 -158.73608398 716.5246582 C-156.92778392 718.32215805 -155.13054023 720.13022316 -153.33398438 721.93945312 C-146.52696876 728.75419837 -139.55585633 735.01646973 -132 741 C-130.89791896 741.93448138 -129.80160115 742.87586641 -128.71484375 743.828125 C-115.41012129 755.42999269 -100.82581949 765.44888706 -86 775 C-85.27103516 775.4734082 -84.54207031 775.94681641 -83.79101562 776.43457031 C-42.32857228 805.18054122 -42.32857228 805.18054122 3.69628906 817.58398438 C8.62162361 816.33542564 13.2260464 814.27129936 17.875 812.25 C19.01050293 811.76120361 20.14600586 811.27240723 21.31591797 810.76879883 C67.53219838 790.60291046 110.91788283 763.2790595 148 729 C149.02384814 728.07843574 150.04864474 727.15792447 151.07421875 726.23828125 C158.30380137 719.71718477 164.99983122 712.87024025 171.51171875 705.63671875 C172.99994379 704.00006182 174.51065756 702.38783996 176.03125 700.78125 C182.68606334 693.73252137 188.80648877 686.41368929 194.68847656 678.70996094 C195.95436838 677.05949439 197.2357446 675.42255271 198.5234375 673.7890625 C224.76192788 640.37679132 245.36608529 602.83988574 260 563 C260.3103418 562.16098145 260.62068359 561.32196289 260.94042969 560.45751953 C270.90541172 533.15433811 276.67583156 504.81370986 280 476 C280.12784378 475.00018475 280.12784378 475.00018475 280.25827026 473.9801712 C281.39045542 463.78296872 281.13197691 453.52455226 281.11352539 443.28051758 C281.113243 441.08187868 281.11340226 438.88323968 281.1139679 436.68460083 C281.11425385 430.74121856 281.10838976 424.79785663 281.10139394 418.85447907 C281.09512678 412.63383733 281.09455394 406.41319508 281.09336853 400.19255066 C281.09044134 389.0924319 281.08322673 377.99232152 281.07372581 366.89220657 C281.06514951 356.81868179 281.05891102 346.74515851 281.05493164 336.67163086 C281.05466892 336.0084208 281.05440619 335.34521075 281.05413551 334.66190342 C281.05283037 331.33443252 281.05156895 328.00696161 281.05032361 324.67949069 C281.03988163 297.11965529 281.02230138 269.55982817 281 242 C278.16541944 241.2090109 275.33058617 240.41894718 272.49560547 239.62939453 C271.30749519 239.29770012 271.30749519 239.29770012 270.09538269 238.95930481 C264.41588072 237.37858494 258.72119719 235.87196227 253.01288128 234.39867496 C169.93047286 212.95485637 88.26602855 181.2276438 5.671875 121.80078125 C0.36229712 118.22224996 -2.24183154 120.64832669 -6.625 124.25 Z M260 137 C264 138 264 138 264 138 Z M-375 161 C-375 161.33 -375 161.66 -375 162 C-373.35 162 -371.7 162 -370 162 C-370 161.67 -370 161.34 -370 161 C-371.65 161 -373.3 161 -375 161 Z M-310 691 C-309 693 -309 693 -309 693 Z " fill="#171718" transform="translate(511,40)"/>
<path d="M0 0 C2.80226095 1.31435526 5.18022523 2.78331754 7.6171875 4.6875 C8.30047119 5.21706299 8.98375488 5.74662598 9.68774414 6.29223633 C10.40953857 6.85579834 11.13133301 7.41936035 11.875 8 C19.45199201 13.86132286 27.16052906 19.49621929 35 25 C34.01 25.33 33.02 25.66 32 26 C30.12158203 25.00292969 30.12158203 25.00292969 28.0078125 23.421875 C27.22575439 22.84268311 26.44369629 22.26349121 25.63793945 21.66674805 C24.80866943 21.03422119 23.97939941 20.40169434 23.125 19.75 C22.2796167 19.11553955 21.4342334 18.4810791 20.56323242 17.82739258 C13.50409156 12.48568373 6.50408873 7.01365475 0 1 C0 0.67 0 0.34 0 0 Z " fill="#0B0B0B" transform="translate(378,781)"/>
<path d="M0 0 C0.66 0.33 1.32 0.66 2 1 C-3.91797582 7.22320093 -10.28608614 12.65665062 -17 18 C-18.44826172 19.16208984 -18.44826172 19.16208984 -19.92578125 20.34765625 C-22.28046926 22.23606941 -24.63854731 24.12005827 -27 26 C-27.66 25.67 -28.32 25.34 -29 25 C-24.46117738 20.87778429 -19.88028051 16.85717022 -15.0625 13.0625 C-9.83328712 8.93330992 -4.90399084 4.50749797 0 0 Z " fill="#070707" transform="translate(659,768)"/>
<path d="M0 0 C4.60742011 3.68593609 4.38164949 9.48459772 5 15 C5.12237063 17.36846371 5.10779656 19.6284757 5 22 C3.68 22 2.36 22 1 22 C0.67 20.02 0.34 18.04 0 16 C0.66 16 1.32 16 2 16 C1.855625 15.26394531 1.71125 14.52789063 1.5625 13.76953125 C1.376875 12.79371094 1.19125 11.81789063 1 10.8125 C0.814375 9.84957031 0.62875 8.88664063 0.4375 7.89453125 C0.03122388 5.2065794 -0.07933572 2.71228981 0 0 Z " fill="#212021" transform="translate(137,547)"/>
<path d="M0 0 C4.09888537 1.61027639 6.76213102 4.57806484 9.75 7.6875 C14.31810591 12.35655853 18.98249583 16.80890829 24 21 C20.0369954 21 19.24396239 19.72653651 16.375 17.0625 C15.49585938 16.24910156 14.61671875 15.43570313 13.7109375 14.59765625 C10.3482879 11.37552083 7.05885375 8.08910671 3.8125 4.75 C2.10747316 2.92892904 2.10747316 2.92892904 0 2 C0 1.34 0 0.68 0 0 Z " fill="#070708" transform="translate(352,757)"/>
<path d="M0 0 C0.33 0 0.66 0 1 0 C2.41114201 15.45743249 2.41114201 15.45743249 1 22 C0.34 22.33 -0.32 22.66 -1 23 C-1.02887512 19.35418313 -1.04675585 15.70839537 -1.0625 12.0625 C-1.07087891 11.02158203 -1.07925781 9.98066406 -1.08789062 8.90820312 C-1.09272461 7.42416992 -1.09272461 7.42416992 -1.09765625 5.91015625 C-1.10289307 4.99371338 -1.10812988 4.07727051 -1.11352539 3.13305664 C-1 1 -1 1 0 0 Z " fill="#070708" transform="translate(891,281)"/>
<path d="M0 0 C2.48538753 1.09165637 4.96267171 2.19736885 7.4375 3.3125 C8.14455078 3.62123047 8.85160156 3.92996094 9.58007812 4.24804688 C11.42464823 5.08648783 13.21706348 6.0374204 15 7 C15.33 7.99 15.66 8.98 16 10 C11.64029169 8.65150163 7.68658562 6.95092154 3.625 4.875 C2.56539063 4.33617187 1.50578125 3.79734375 0.4140625 3.2421875 C-0.38257813 2.83226562 -1.17921875 2.42234375 -2 2 C-1.34 1.34 -0.68 0.68 0 0 Z " fill="#222222" transform="translate(420,932)"/>
<path d="M0 0 C3.27588336 1.42618321 6.54471607 2.86786625 9.8125 4.3125 C10.74126953 4.71662109 11.67003906 5.12074219 12.62695312 5.53710938 C13.51962891 5.93349609 14.41230469 6.32988281 15.33203125 6.73828125 C16.15421143 7.09962158 16.9763916 7.46096191 17.82348633 7.83325195 C19.98259326 8.99066889 21.3810423 10.1795313 23 12 C14.82175048 9.60292686 7.53348722 5.91141228 0 2 C0 1.34 0 0.68 0 0 Z " fill="#090909" transform="translate(467,839)"/>
<path d="M0 0 C0.66 0.33 1.32 0.66 2 1 C-1.38232729 4.58128772 -4.67246241 7.60604303 -9 10 C-10.32 9.67 -11.64 9.34 -13 9 C-8.71 6.03 -4.42 3.06 0 0 Z " fill="#212121" transform="translate(453,82)"/>
<path d="M0 0 C5.29012124 4.40843437 10.18808428 9.07559794 15 14 C14.34 14.66 13.68 15.32 13 16 C12.56429688 15.49210938 12.12859375 14.98421875 11.6796875 14.4609375 C8.74023652 11.06339026 5.79798935 7.74466037 2.5625 4.625 C0 2 0 2 0 0 Z " fill="#080808" transform="translate(336,740)"/>
<path d="M0 0 C0.33 0 0.66 0 1 0 C1.78441153 6.56492112 2.10914408 12.46837378 1 19 C0.67 19 0.34 19 0 19 C-1.06808374 12.72500803 -2.04367839 6.13103517 0 0 Z " fill="#252425" transform="translate(136,527)"/>
<path d="M0 0 C0.33 0 0.66 0 1 0 C1.95619733 3.99795892 2.1039592 7.70803922 2.0625 11.8125 C2.05347656 12.97394531 2.04445313 14.13539063 2.03515625 15.33203125 C2.02355469 16.21246094 2.01195312 17.09289062 2 18 C1.67 18 1.34 18 1 18 C0.67 15.03 0.34 12.06 0 9 C-0.33 9 -0.66 9 -1 9 C-1.09765625 2.84765625 -1.09765625 2.84765625 -1 1 C-0.67 0.67 -0.34 0.34 0 0 Z " fill="#222223" transform="translate(889,500)"/>
<path d="M0 0 C4.9723422 1.49170266 9.41845739 3.60457417 14 6 C10.48819545 7.2536419 8.66535141 6.77956527 5.3125 5.25 C4.52488281 4.90453125 3.73726562 4.5590625 2.92578125 4.203125 C1 3 1 3 0 0 Z " fill="#222122" transform="translate(645,128)"/>
<path d="M0 0 C3 0 3 0 5.625 2.375 C8 5 8 5 9 7 C6.03 6.505 6.03 6.505 3 6 C2.67 4.68 2.34 3.36 2 2 C0.68 2.33 -0.64 2.66 -2 3 C-1.34 2.01 -0.68 1.02 0 0 Z " fill="#282828" transform="translate(511,40)"/>
<path d="M0 0 C1.6498275 0.42218816 3.29483665 0.86324425 4.9375 1.3125 C6.31228516 1.67794922 6.31228516 1.67794922 7.71484375 2.05078125 C8.46894531 2.36402344 9.22304688 2.67726563 10 3 C10.33 3.99 10.66 4.98 11 6 C6.545 5.01 6.545 5.01 2 4 C2 3.34 2 2.68 2 2 C1.01 1.67 0.02 1.34 -1 1 C-0.67 0.67 -0.34 0.34 0 0 Z " fill="#201F20" transform="translate(471,956)"/>
<path d="M0 0 C0.66 0 1.32 0 2 0 C0.54955729 4.10958767 -1.51110752 7.43258745 -4 11 C-4.64453125 9.234375 -4.64453125 9.234375 -5 7 C-4.07421875 5.078125 -4.07421875 5.078125 -2.6875 3.25 C-2.23761719 2.63640625 -1.78773438 2.0228125 -1.32421875 1.390625 C-0.88722656 0.93171875 -0.45023438 0.4728125 0 0 Z " fill="#1E1E1F" transform="translate(816,739)"/>
<path d="M0 0 C3.63 1.98 7.26 3.96 11 6 C9.02 6.99 9.02 6.99 7 8 C7 7.34 7 6.68 7 6 C6.21625 5.690625 5.4325 5.38125 4.625 5.0625 C2 4 2 4 0 3 C0 2.01 0 1.02 0 0 Z " fill="#212020" transform="translate(608,107)"/>
<path d="M0 0 C4.99911924 0.47610659 7.97832683 2.03162219 12 5 C10.02 5.99 10.02 5.99 8 7 C8 6.01 8 5.02 8 4 C7.236875 3.855625 6.47375 3.71125 5.6875 3.5625 C3 3 3 3 0 2 C0 1.34 0 0.68 0 0 Z " fill="#1D1D1D" transform="translate(595,101)"/>
<path d="M0 0 C4.37934119 0.51958285 8.68803391 1.05675742 13 2 C9.00439392 4.83022097 5.57262677 3.76210446 1 3 C0.67 2.01 0.34 1.02 0 0 Z " fill="#252525" transform="translate(815,189)"/>
<path d="M0 0 C5.07009471 0.47532138 8.97493258 3.04362294 13 6 C13 6.33 13 6.66 13 7 C11.35 7 9.7 7 8 7 C7.7525 6.360625 7.505 5.72125 7.25 5.0625 C6.20265017 2.82123176 6.20265017 2.82123176 4 2.375 C3.34 2.25125 2.68 2.1275 2 2 C1.34 1.34 0.68 0.68 0 0 Z " fill="#1E1D1D" transform="translate(558,77)"/>
<path d="M0 0 C3.31562557 0.55260426 6.15062207 1.16825705 9 3 C9.33 3.99 9.66 4.98 10 6 C6.51329166 4.8905928 3.22515763 3.73662334 0 2 C0 1.34 0 0.68 0 0 Z " fill="#1F1F1F" transform="translate(439,942)"/>
<path d="M0 0 C0.99 0.33 1.98 0.66 3 1 C-1.455 4.465 -1.455 4.465 -6 8 C-6.33 7.01 -6.66 6.02 -7 5 C-5.90554162 4.13342884 -4.79902219 3.28207276 -3.6875 2.4375 C-3.07261719 1.96183594 -2.45773437 1.48617187 -1.82421875 0.99609375 C-1.22222656 0.66738281 -0.62023437 0.33867188 0 0 Z " fill="#1F1E1F" transform="translate(697,874)"/>
<path d="M0 0 C0.66 0.33 1.32 0.66 2 1 C2 3.97 2 6.94 2 10 C1.01 10.33 0.02 10.66 -1 11 C-1.02688151 9.35425434 -1.04634123 7.70838587 -1.0625 6.0625 C-1.07410156 5.14597656 -1.08570313 4.22945313 -1.09765625 3.28515625 C-1 1 -1 1 0 0 Z " fill="#0F0F10" transform="translate(891,303)"/>
<path d="M0 0 C0.66 0.33 1.32 0.66 2 1 C2.29296875 7.0546875 2.29296875 7.0546875 2 9 C1.01 9.66 0.02 10.32 -1 11 C-1.02688151 9.35425434 -1.04634123 7.70838587 -1.0625 6.0625 C-1.07410156 5.14597656 -1.08570313 4.22945313 -1.09765625 3.28515625 C-1 1 -1 1 0 0 Z " fill="#0F0F10" transform="translate(891,271)"/>
<path d="M0 0 C0.66 0.33 1.32 0.66 2 1 C1.375 2.9375 1.375 2.9375 0 5 C-3.125 5.75 -3.125 5.75 -6 6 C-6.33 5.34 -6.66 4.68 -7 4 C-1.7265625 0.77734375 -1.7265625 0.77734375 0 0 Z " fill="#202020" transform="translate(400,115)"/>
<path d="M0 0 C0.33 0.66 0.66 1.32 1 2 C1.66 2 2.32 2 3 2 C3.66 3.98 4.32 5.96 5 8 C4.34 8.66 3.68 9.32 3 10 C2.34 8.35 1.68 6.7 1 5 C0.34 5 -0.32 5 -1 5 C-0.67 3.35 -0.34 1.7 0 0 Z " fill="#252525" transform="translate(164,651)"/>
<path d="M0 0 C3.3 0.99 6.6 1.98 10 3 C6 5 6 5 2.75 4.125 C1.8425 3.75375 0.935 3.3825 0 3 C0 2.01 0 1.02 0 0 Z " fill="#222323" transform="translate(735,166)"/>
<path d="M0 0 C0.99 0.33 1.98 0.66 3 1 C3.74926071 4.66305234 4.2380014 7.42355152 3 11 C2.34 10.67 1.68 10.34 1 10 C0.5859375 7.71484375 0.5859375 7.71484375 0.375 4.9375 C0.30023438 4.01839844 0.22546875 3.09929688 0.1484375 2.15234375 C0.09945312 1.44207031 0.05046875 0.73179687 0 0 Z " fill="#272727" transform="translate(147,597)"/>
<path d="M0 0 C1.20220203 3.53094302 0.79532349 6.12898982 0.0625 9.75 C-0.13214844 10.73484375 -0.32679688 11.7196875 -0.52734375 12.734375 C-0.68332031 13.48203125 -0.83929687 14.2296875 -1 15 C-1.33 15 -1.66 15 -2 15 C-2.33 12.69 -2.66 10.38 -3 8 C-2.34 8 -1.68 8 -1 8 C-1.33 6.02 -1.66 4.04 -2 2 C-1.34 2 -0.68 2 0 2 C0 1.34 0 0.68 0 0 Z " fill="#2A2A2A" transform="translate(884,558)"/>
<path d="M0 0 C4.7517398 0.43197635 6.92000054 1.32769295 10 5 C5.75354935 5 3.61475228 3.18249194 0 1 C0 0.67 0 0.34 0 0 Z " fill="#1F1F1F" transform="translate(374,908)"/>
<path d="M0 0 C0.33 0 0.66 0 1 0 C1 4.95 1 9.9 1 15 C-1 13 -1 13 -1.23046875 10.9765625 C-1.21628906 10.20054687 -1.20210938 9.42453125 -1.1875 8.625 C-1.18105469 7.85414063 -1.17460938 7.08328125 -1.16796875 6.2890625 C-1.00595151 4.08110656 -0.60634894 2.12464668 0 0 Z " fill="#323131" transform="translate(129,447)"/>
<path d="M0 0 C-1.12073862 0.83905565 -2.24674547 1.67107831 -3.375 2.5 C-4.00148438 2.9640625 -4.62796875 3.428125 -5.2734375 3.90625 C-7 5 -7 5 -9 5 C-8 2 -8 2 -5.625 0.25 C-3 -1 -3 -1 0 0 Z " fill="#1E1D1E" transform="translate(672,895)"/>
<path d="M0 0 C1.45606519 4.52092968 0.27032841 7.51648796 -1 12 C-2.61949011 9.42786866 -3.04408751 8.32330841 -2.625 5.25 C-2.41875 4.5075 -2.2125 3.765 -2 3 C-1.34 3 -0.68 3 0 3 C0 2.01 0 1.02 0 0 Z " fill="#282829" transform="translate(878,587)"/>
<path d="M0 0 C5.75 0.75 5.75 0.75 8 3 C6.02 3.99 6.02 3.99 4 5 C4 4.34 4 3.68 4 3 C2.35 2.67 0.7 2.34 -1 2 C-0.67 1.34 -0.34 0.68 0 0 Z " fill="#222222" transform="translate(712,158)"/>
<path d="M0 0 C-1.3125 1.5 -1.3125 1.5 -3 3 C-3.99 3 -4.98 3 -6 3 C-6 2.34 -6 1.68 -6 1 C-6.99 0.67 -7.98 0.34 -9 0 C-5.93109813 -1.53445094 -3.29905734 -0.54984289 0 0 Z " fill="#1F1F1F" transform="translate(326,153)"/>
<path d="M0 0 C2.31 0.66 4.62 1.32 7 2 C4 4 4 4 0.8125 3.625 C-0.115625 3.41875 -1.04375 3.2125 -2 3 C-1.34 2.67 -0.68 2.34 0 2 C0 1.34 0 0.68 0 0 Z " fill="#202021" transform="translate(693,150)"/>
<path d="M0 0 C1.32 0 2.64 0 4 0 C4 0.66 4 1.32 4 2 C6.475 2.99 6.475 2.99 9 4 C8.34 4.66 7.68 5.32 7 6 C7 5.34 7 4.68 7 4 C4.03 3.505 4.03 3.505 1 3 C0.67 2.01 0.34 1.02 0 0 Z " fill="#272727" transform="translate(630,120)"/>
<path d="M0 0 C3.68754757 0.49831724 5.60490662 1.10067643 8 4 C7.01 4.495 7.01 4.495 6 5 C3.96855359 4.06553465 1.96466413 3.06775224 0 2 C0 1.34 0 0.68 0 0 Z " fill="#202020" transform="translate(452,948)"/>
<path d="M0 0 C0.99 0.33 1.98 0.66 3 1 C4.125 6.75 4.125 6.75 3 9 C2.01 8.34 1.02 7.68 0 7 C0.66 7 1.32 7 2 7 C1.34 4.69 0.68 2.38 0 0 Z " fill="#2A2A2A" transform="translate(168,662)"/>
<path d="M0 0 C2.1640625 0.0234375 2.1640625 0.0234375 4.625 0.375 C5.85089844 0.54128906 5.85089844 0.54128906 7.1015625 0.7109375 C7.72804688 0.80632812 8.35453125 0.90171875 9 1 C5.01647791 3.30903272 2.49885947 2.86516528 -2 2 C-1.34 1.34 -0.68 0.68 0 0 Z " fill="#1F1F1F" transform="translate(801,186)"/>
<path d="M0 0 C0.66 0.33 1.32 0.66 2 1 C0.35 2.65 -1.3 4.3 -3 6 C-3.99 5.34 -4.98 4.68 -6 4 C-4.02 2.68 -2.04 1.36 0 0 Z " fill="#242324" transform="translate(427,99)"/>
<path d="M0 0 C0.99 0.66 1.98 1.32 3 2 C-1.455 3.485 -1.455 3.485 -6 5 C-5 2 -5 2 -2.625 0.6875 C-1.75875 0.460625 -0.8925 0.23375 0 0 Z " fill="#232222" transform="translate(546,958)"/>
<path d="M0 0 C3.3 0 6.6 0 10 0 C9.67 0.66 9.34 1.32 9 2 C2.57142857 3.28571429 2.57142857 3.28571429 0 2 C0 1.34 0 0.68 0 0 Z " fill="#2A2A2A" transform="translate(829,192)"/>
<path d="M0 0 C3.37503669 1.1858237 5.64722731 2.27573689 8 5 C6.25 5.75 6.25 5.75 4 6 C1.75 4.1875 1.75 4.1875 0 2 C0 1.34 0 0.68 0 0 Z " fill="#1E1D1D" transform="translate(572,85)"/>
<path d="M0 0 C0.33 0 0.66 0 1 0 C1 3.96 1 7.92 1 12 C-1.11257974 7.77484052 -1.26149964 5.61982692 -1 1 C-0.67 0.67 -0.34 0.34 0 0 Z " fill="#323232" transform="translate(129,266)"/>
<path d="M0 0 C0.33 0 0.66 0 1 0 C1 4.62 1 9.24 1 14 C0.67 14 0.34 14 0 14 C-1.13016601 8.97703996 -0.77916092 5.02125926 0 0 Z " fill="#363535" transform="translate(129,219)"/>
<path d="M0 0 C0.33 0 0.66 0 1 0 C1 3.96 1 7.92 1 12 C-1.69461986 7.95807022 -1.23200889 5.7948504 -1 1 C-0.67 0.67 -0.34 0.34 0 0 Z " fill="#323231" transform="translate(129,386)"/>
<path d="M0 0 C0.33 0 0.66 0 1 0 C1 4.29 1 8.58 1 13 C0.67 13 0.34 13 0 13 C0 8.71 0 4.42 0 0 Z " fill="#2F2F2F" transform="translate(130,494)"/>
<path d="M0 0 C0.33 0 0.66 0 1 0 C1 3.3 1 6.6 1 10 C0.67 10 0.34 10 0 10 C-1.125 3.375 -1.125 3.375 0 0 Z " fill="#323231" transform="translate(129,423)"/>
<path d="M0 0 C2.31 0 4.62 0 7 0 C6.67 0.66 6.34 1.32 6 2 C3.03 1.505 3.03 1.505 0 1 C0 0.67 0 0.34 0 0 Z " fill="#2E2E2D" transform="translate(842,192)"/>
<path d="M0 0 C0.33 0 0.66 0 1 0 C1 3.3 1 6.6 1 10 C0.67 10 0.34 10 0 10 C0 6.7 0 3.4 0 0 Z " fill="#333333" transform="translate(129,247)"/>
<path d="M0 0 C0.99 0 1.98 0 3 0 C3.33 1.32 3.66 2.64 4 4 C2.68 3.34 1.36 2.68 0 2 C0 1.34 0 0.68 0 0 Z " fill="#2B2A2A" transform="translate(184,705)"/>
<path d="M0 0 C0.66 1.32 1.32 2.64 2 4 C1.01 4.33 0.02 4.66 -1 5 C-0.67 3.35 -0.34 1.7 0 0 Z " fill="#2C2B2B" transform="translate(177,687)"/>
<path d="M0 0 C0.33 0 0.66 0 1 0 C1 2.31 1 4.62 1 7 C-0.0625 5.1875 -0.0625 5.1875 -1 3 C-0.67 2.01 -0.34 1.02 0 0 Z " fill="#323232" transform="translate(129,463)"/>
<path d="M0 0 C0.33 0 0.66 0 1 0 C1 2.97 1 5.94 1 9 C0.67 9 0.34 9 0 9 C0 6.03 0 3.06 0 0 Z " fill="#323231" transform="translate(129,407)"/>
<path d="M0 0 C0.33 0 0.66 0 1 0 C1 2.64 1 5.28 1 8 C0.67 8 0.34 8 0 8 C-0.38063221 5.6739143 -0.71269945 3.33944736 -1 1 C-0.67 0.67 -0.34 0.34 0 0 Z " fill="#313031" transform="translate(129,314)"/>
<path d="M0 0 C0.66 0.66 1.32 1.32 2 2 C1.34 3.32 0.68 4.64 0 6 C0 4.02 0 2.04 0 0 Z " fill="#2C2B2B" transform="translate(208,746)"/>
<path d="M0 0 C0.33 0 0.66 0 1 0 C1 2.31 1 4.62 1 7 C0.67 7 0.34 7 0 7 C-0.38133299 5.0085944 -0.71325582 3.00720923 -1 1 C-0.67 0.67 -0.34 0.34 0 0 Z " fill="#323131" transform="translate(129,282)"/>
<path d="M0 0 C0.33 0 0.66 0 1 0 C1 2.31 1 4.62 1 7 C-1 4 -1 4 -0.625 1.8125 C-0.41875 1.214375 -0.2125 0.61625 0 0 Z " fill="#353434" transform="translate(129,239)"/>
<path d="M0 0 C0.99 1.485 0.99 1.485 2 3 C1.67 3.99 1.34 4.98 1 6 C0.67 4.02 0.34 2.04 0 0 Z " fill="#2C2C2C" transform="translate(145,597)"/>
<path d="M0 0 C0.33 0 0.66 0 1 0 C1 1.98 1 3.96 1 6 C0.34 5.34 -0.32 4.68 -1 4 C-0.625 1.875 -0.625 1.875 0 0 Z " fill="#313030" transform="translate(129,399)"/>
<path d="M0 0 C1.65 0 3.3 0 5 0 C5 0.66 5 1.32 5 2 C3.35 1.67 1.7 1.34 0 1 C0 0.67 0 0.34 0 0 Z " fill="#2A292A" transform="translate(723,160)"/>
<path d="M0 0 C1.98 0.495 1.98 0.495 4 1 C2.35 1.66 0.7 2.32 -1 3 C-0.67 2.01 -0.34 1.02 0 0 Z " fill="#2E2E2E" transform="translate(439,88)"/>
<path d="M0 0 C0.66 0.99 1.32 1.98 2 3 C1.01 3 0.02 3 -1 3 C-0.67 2.01 -0.34 1.02 0 0 Z " fill="#302F30" transform="translate(243,176)"/>
<path d="M0 0 C1.65 0 3.3 0 5 0 C4.01 0.66 3.02 1.32 2 2 C1.34 1.34 0.68 0.68 0 0 Z " fill="#2F2F2F" transform="translate(484,56)"/>
<path d="M0 0 C0.33 0.99 0.66 1.98 1 3 C0.34 3 -0.32 3 -1 3 C-0.67 2.01 -0.34 1.02 0 0 Z " fill="#2C2C2C" transform="translate(147,604)"/>
<path d="M0 0 C0.33 1.32 0.66 2.64 1 4 C0.34 3.34 -0.32 2.68 -1 2 C-0.67 1.34 -0.34 0.68 0 0 Z " fill="#323131" transform="translate(129,418)"/>
<path d="M0 0 C0.99 0.495 0.99 0.495 2 1 C2 1.66 2 2.32 2 3 C1.34 3 0.68 3 0 3 C0 2.01 0 1.02 0 0 Z " fill="#3A3838" transform="translate(128,203)"/>
<path d="M0 0 C0.99 0 1.98 0 3 0 C2.67 0.66 2.34 1.32 2 2 C1.34 1.34 0.68 0.68 0 0 Z " fill="#2F2D2D" transform="translate(465,957)"/>
<path d="M0 0 C0.66 0 1.32 0 2 0 C2 0.66 2 1.32 2 2 C1.34 2 0.68 2 0 2 C0 1.34 0 0.68 0 0 Z " fill="#2B2A2B" transform="translate(394,922)"/>
<path d="M0 0 C0.66 0 1.32 0 2 0 C1.67 0.99 1.34 1.98 1 3 C0.67 2.01 0.34 1.02 0 0 Z " fill="#2E2D2D" transform="translate(822,739)"/>
<path d="M0 0 C0.99 1.485 0.99 1.485 2 3 C1.34 3 0.68 3 0 3 C0 2.01 0 1.02 0 0 Z " fill="#2A2929" transform="translate(203,736)"/>
<path d="M0 0 C0.99 0.495 0.99 0.495 2 1 C1.67 1.66 1.34 2.32 1 3 C0.67 2.01 0.34 1.02 0 0 Z " fill="#2C2C2D" transform="translate(192,721)"/>
<path d="M0 0 C1 4 1 4 1 4 Z " fill="#2E2E2F" transform="translate(887,552)"/>
<path d="M0 0 C1 4 1 4 1 4 Z " fill="#323232" transform="translate(129,442)"/>
<path d="M0 0 C0.66 0 1.32 0 2 0 C1.67 0.99 1.34 1.98 1 3 C0.67 2.01 0.34 1.02 0 0 Z " fill="#333232" transform="translate(128,434)"/>
<path d="M0 0 C0.66 0 1.32 0 2 0 C1.67 0.99 1.34 1.98 1 3 C0.67 2.01 0.34 1.02 0 0 Z " fill="#333131" transform="translate(128,323)"/>
<path d="M0 0 C0 3 0 3 0 3 Z " fill="#333233" transform="translate(129,306)"/>
<path d="M0 0 C1 4 1 4 1 4 Z " fill="#333231" transform="translate(129,258)"/>
<path d="M0 0 C1 4 1 4 1 4 Z " fill="#353434" transform="translate(129,234)"/>
<path d="M0 0 C1 4 1 4 1 4 Z " fill="#373738" transform="translate(129,210)"/>
<path d="M0 0 C4 1 4 1 4 1 Z " fill="#2E2E2D" transform="translate(707,152)"/>
<path d="M0 0 C4 1 4 1 4 1 Z " fill="#2D2B2B" transform="translate(702,152)"/>
<path d="M0 0 C0.66 0 1.32 0 2 0 C2 0.66 2 1.32 2 2 C1.34 2 0.68 2 0 2 C0 1.34 0 0.68 0 0 Z " fill="#2C2C2D" transform="translate(336,144)"/>
<path d="" fill="#302F2F" transform="translate(0,0)"/>
<path d="M0 0 C3 1 3 1 3 1 Z " fill="#2D2C2C" transform="translate(480,963)"/>
<path d="M0 0 C0.33 0.66 0.66 1.32 1 2 C0.34 1.67 -0.32 1.34 -1 1 C-0.67 0.67 -0.34 0.34 0 0 Z " fill="#2B2A2A" transform="translate(308,862)"/>
<path d="M0 0 C0.66 0.66 1.32 1.32 2 2 C1.34 2 0.68 2 0 2 C0 1.34 0 0.68 0 0 Z " fill="#2D2A2A" transform="translate(290,846)"/>
<path d="M0 0 C0.66 0.66 1.32 1.32 2 2 C1.34 2 0.68 2 0 2 C0 1.34 0 0.68 0 0 Z " fill="#29282A" transform="translate(241,792)"/>
<path d="M0 0 C0.66 0.66 1.32 1.32 2 2 C1.34 2 0.68 2 0 2 C0 1.34 0 0.68 0 0 Z " fill="#2B2A2B" transform="translate(193,719)"/>
<path d="" fill="#2B2A29" transform="translate(0,0)"/>
<path d="M0 0 C0.66 0 1.32 0 2 0 C1.67 0.66 1.34 1.32 1 2 C0.67 1.34 0.34 0.68 0 0 Z " fill="#2C2B2B" transform="translate(169,671)"/>
<path d="" fill="#2D2D2D" transform="translate(0,0)"/>
<path d="M0 0 C0.33 0.66 0.66 1.32 1 2 C0.34 1.67 -0.32 1.34 -1 1 C-0.67 0.67 -0.34 0.34 0 0 Z " fill="#323231" transform="translate(129,330)"/>
<path d="M0 0 C0.33 0.66 0.66 1.32 1 2 C0.34 1.67 -0.32 1.34 -1 1 C-0.67 0.67 -0.34 0.34 0 0 Z " fill="#323231" transform="translate(129,263)"/>
<path d="M0 0 C0.33 0.66 0.66 1.32 1 2 C0.34 1.67 -0.32 1.34 -1 1 C-0.67 0.67 -0.34 0.34 0 0 Z " fill="#363535" transform="translate(891,200)"/>
<path d="M0 0 C3 1 3 1 3 1 Z " fill="#363436" transform="translate(887,200)"/>
<path d="M0 0 C3 1 3 1 3 1 Z " fill="#313031" transform="translate(175,193)"/>
<path d="M0 0 C0.33 0.66 0.66 1.32 1 2 C0.34 1.67 -0.32 1.34 -1 1 C-0.67 0.67 -0.34 0.34 0 0 Z " fill="#2E2E2D" transform="translate(180,192)"/>
<path d="M0 0 C0.66 0 1.32 0 2 0 C1.67 0.66 1.34 1.32 1 2 C0.67 1.34 0.34 0.68 0 0 Z " fill="#2D2D2C" transform="translate(731,162)"/>
<path d="M0 0 C3 1 3 1 3 1 Z " fill="#2D2C2C" transform="translate(299,160)"/>
<path d="M0 0 C0.99 0.495 0.99 0.495 2 1 C1.01 1.495 1.01 1.495 0 2 C0 1.34 0 0.68 0 0 Z " fill="#2D2E2E" transform="translate(295,160)"/>
<path d="M0 0 C0.66 0.66 1.32 1.32 2 2 C1.34 2 0.68 2 0 2 C0 1.34 0 0.68 0 0 Z " fill="#2E2E2D" transform="translate(315,153)"/>
<path d="M0 0 C3 1 3 1 3 1 Z " fill="#2A2A2A" transform="translate(683,144)"/>
<path d="M0 0 C0.99 0.495 0.99 0.495 2 1 C1.01 1.495 1.01 1.495 0 2 C0 1.34 0 0.68 0 0 Z " fill="#2F2E2E" transform="translate(411,104)"/>
<path d="M0 0 C3 1 3 1 3 1 Z " fill="#30302E" transform="translate(432,88)"/>
<path d="M0 0 C0.99 0.495 0.99 0.495 2 1 C1.01 1.495 1.01 1.495 0 2 C0 1.34 0 0.68 0 0 Z " fill="#2F2D2D" transform="translate(464,72)"/>
<path d="M0 0 C2 1 2 1 2 1 Z " fill="#302E2E" transform="translate(518,972)"/>
<path d="M0 0 C2 1 2 1 2 1 Z " fill="#2F2E2F" transform="translate(540,967)"/>
<path d="M0 0 C2 1 2 1 2 1 Z " fill="#2F2E2D" transform="translate(490,967)"/>
<path d="M0 0 C2 1 2 1 2 1 Z " fill="#2E2D2D" transform="translate(488,966)"/>
<path d="M0 0 C2 1 2 1 2 1 Z " fill="#2F2E30" transform="translate(537,965)"/>
<path d="M0 0 C2 1 2 1 2 1 Z " fill="#302F2F" transform="translate(447,949)"/>
<path d="M0 0 C2 1 2 1 2 1 Z " fill="#2F2D2C" transform="translate(434,943)"/>
<path d="" fill="#302E2F" transform="translate(0,0)"/>
<path d="M0 0 C2 1 2 1 2 1 Z " fill="#2D2B2B" transform="translate(676,895)"/>
<path d="M0 0 C2 1 2 1 2 1 Z " fill="#2D2D2B" transform="translate(351,895)"/>
<path d="M0 0 C2 1 2 1 2 1 Z " fill="#2A2A2A" transform="translate(678,891)"/>
<path d="" fill="#2A2928" transform="translate(0,0)"/>
<path d="" fill="#2B2B2A" transform="translate(0,0)"/>
<path d="M0 0 C2 1 2 1 2 1 Z " fill="#2A2A29" transform="translate(313,867)"/>
<path d="M0 0 C2 1 2 1 2 1 Z " fill="#2C2B2B" transform="translate(741,839)"/>
<path d="M0 0 C2 1 2 1 2 1 Z " fill="#292827" transform="translate(265,821)"/>
<path d="" fill="#292828" transform="translate(0,0)"/>
<path d="M0 0 C2 1 2 1 2 1 Z " fill="#2C2A2B" transform="translate(241,795)"/>
<path d="" fill="#2C2A29" transform="translate(0,0)"/>
<path d="" fill="#2C2B2C" transform="translate(0,0)"/>
<path d="" fill="#2C2A2C" transform="translate(0,0)"/>
<path d="M0 0 C2 1 2 1 2 1 Z " fill="#2C2C2B" transform="translate(200,737)"/>
<path d="" fill="#2B2B2A" transform="translate(0,0)"/>
<path d="M0 0 C2 1 2 1 2 1 Z " fill="#2C2D2C" transform="translate(192,725)"/>
<path d="" fill="#2A2B2B" transform="translate(0,0)"/>
<path d="" fill="#2A2A29" transform="translate(0,0)"/>
<path d="" fill="#2B292B" transform="translate(0,0)"/>
<path d="" fill="#2D2E30" transform="translate(0,0)"/>
<path d="" fill="#292829" transform="translate(0,0)"/>
<path d="" fill="#2E2E30" transform="translate(0,0)"/>
<path d="" fill="#2C2B2C" transform="translate(0,0)"/>
<path d="" fill="#2D2D2D" transform="translate(0,0)"/>
<path d="" fill="#2E2E2D" transform="translate(0,0)"/>
<path d="M0 0 C2 1 2 1 2 1 Z " fill="#2C2C2D" transform="translate(884,567)"/>
<path d="" fill="#302E2F" transform="translate(0,0)"/>
<path d="" fill="#2B292A" transform="translate(0,0)"/>
<path d="" fill="#2E2E2D" transform="translate(0,0)"/>
<path d="" fill="#312F2F" transform="translate(0,0)"/>
<path d="" fill="#2F2E2E" transform="translate(0,0)"/>
<path d="" fill="#313030" transform="translate(0,0)"/>
<path d="" fill="#31312F" transform="translate(0,0)"/>
<path d="" fill="#323132" transform="translate(0,0)"/>
<path d="" fill="#33312F" transform="translate(0,0)"/>
<path d="" fill="#323131" transform="translate(0,0)"/>
<path d="" fill="#323131" transform="translate(0,0)"/>
<path d="" fill="#393838" transform="translate(0,0)"/>
<path d="M0 0 C2 1 2 1 2 1 Z " fill="#31322F" transform="translate(857,195)"/>
<path d="M0 0 C2 1 2 1 2 1 Z " fill="#302E2F" transform="translate(850,194)"/>
<path d="M0 0 C2 1 2 1 2 1 Z " fill="#2F3031" transform="translate(854,192)"/>
<path d="M0 0 C2 1 2 1 2 1 Z " fill="#2C2A29" transform="translate(819,188)"/>
<path d="M0 0 C2 1 2 1 2 1 Z " fill="#2E2E2F" transform="translate(810,185)"/>
<path d="M0 0 C2 1 2 1 2 1 Z " fill="#2E2D2E" transform="translate(807,185)"/>
<path d="" fill="#302F2F" transform="translate(0,0)"/>
<path d="M0 0 C2 1 2 1 2 1 Z " fill="#2F2E2E" transform="translate(235,180)"/>
<path d="" fill="#2D2E2E" transform="translate(0,0)"/>
<path d="" fill="#2F302E" transform="translate(0,0)"/>
<path d="" fill="#2E2D2F" transform="translate(0,0)"/>
<path d="M0 0 C2 1 2 1 2 1 Z " fill="#2E2C2B" transform="translate(277,168)"/>
<path d="M0 0 C2 1 2 1 2 1 Z " fill="#2E2D2E" transform="translate(297,161)"/>
<path d="M0 0 C2 1 2 1 2 1 Z " fill="#2E2C2C" transform="translate(688,146)"/>
<path d="M0 0 C2 1 2 1 2 1 Z " fill="#2E2D2D" transform="translate(670,136)"/>
<path d="M0 0 C2 1 2 1 2 1 Z " fill="#2B2B2B" transform="translate(368,130)"/>
<path d="M0 0 C2 1 2 1 2 1 Z " fill="#2D2D2C" transform="translate(370,129)"/>
<path d="M0 0 C2 1 2 1 2 1 Z " fill="#2D2C2C" transform="translate(425,98)"/>
<path d="M0 0 C2 1 2 1 2 1 Z " fill="#2A282A" transform="translate(592,96)"/>
<path d="" fill="#302F2E" transform="translate(0,0)"/>
<path d="" fill="#2D2B2A" transform="translate(0,0)"/>
<path d="M0 0 C2 1 2 1 2 1 Z " fill="#2E2D2C" transform="translate(453,80)"/>
<path d="" fill="#2C2C2C" transform="translate(0,0)"/>
<path d="" fill="#2D2C2D" transform="translate(0,0)"/>
<path d="M0 0 C2 1 2 1 2 1 Z " fill="#2B2A2B" transform="translate(476,64)"/>
<path d="M0 0 C2 1 2 1 2 1 Z " fill="#2E2D2F" transform="translate(508,40)"/>
<path d="" fill="#333131" transform="translate(0,0)"/>
<path d="" fill="#303030" transform="translate(0,0)"/>
<path d="" fill="#303130" transform="translate(0,0)"/>
<path d="" fill="#302F30" transform="translate(0,0)"/>
<path d="" fill="#302F2F" transform="translate(0,0)"/>
<path d="" fill="#2E2D2E" transform="translate(0,0)"/>
<path d="" fill="#2E2F2F" transform="translate(0,0)"/>
<path d="" fill="#30302F" transform="translate(0,0)"/>
<path d="" fill="#2E2F2E" transform="translate(0,0)"/>
<path d="" fill="#2F2D2E" transform="translate(0,0)"/>
<path d="" fill="#2F2D2F" transform="translate(0,0)"/>
<path d="" fill="#2E2F2E" transform="translate(0,0)"/>
<path d="" fill="#2D2C2C" transform="translate(0,0)"/>
<path d="" fill="#2F2D2E" transform="translate(0,0)"/>
<path d="" fill="#2B292A" transform="translate(0,0)"/>
<path d="" fill="#302C2F" transform="translate(0,0)"/>
<path d="" fill="#2E2E2C" transform="translate(0,0)"/>
<path d="" fill="#2E2E2D" transform="translate(0,0)"/>
<path d="" fill="#2D2B2A" transform="translate(0,0)"/>
<path d="" fill="#2D2B2A" transform="translate(0,0)"/>
<path d="" fill="#2F2D2D" transform="translate(0,0)"/>
<path d="" fill="#2C2C2D" transform="translate(0,0)"/>
<path d="" fill="#2E2D2E" transform="translate(0,0)"/>
<path d="" fill="#302F2F" transform="translate(0,0)"/>
<path d="" fill="#2E2E2D" transform="translate(0,0)"/>
<path d="" fill="#2F2D2E" transform="translate(0,0)"/>
<path d="" fill="#2F2D2D" transform="translate(0,0)"/>
<path d="" fill="#2D2C2D" transform="translate(0,0)"/>
<path d="" fill="#2E2D2E" transform="translate(0,0)"/>
<path d="" fill="#2D2A2D" transform="translate(0,0)"/>
<path d="" fill="#2A2A2C" transform="translate(0,0)"/>
<path d="" fill="#2E2D2E" transform="translate(0,0)"/>
<path d="" fill="#2F2C2D" transform="translate(0,0)"/>
<path d="" fill="#2E2D2D" transform="translate(0,0)"/>
<path d="" fill="#2E2F2D" transform="translate(0,0)"/>
<path d="" fill="#2A292A" transform="translate(0,0)"/>
<path d="" fill="#2E2D2B" transform="translate(0,0)"/>
<path d="" fill="#2E2D2B" transform="translate(0,0)"/>
<path d="" fill="#302C2E" transform="translate(0,0)"/>
<path d="" fill="#2E2C2C" transform="translate(0,0)"/>
<path d="" fill="#2E2D2F" transform="translate(0,0)"/>
<path d="" fill="#2F2D2E" transform="translate(0,0)"/>
<path d="" fill="#2E2B2C" transform="translate(0,0)"/>
<path d="" fill="#2B2A2B" transform="translate(0,0)"/>
<path d="" fill="#2A282A" transform="translate(0,0)"/>
<path d="" fill="#2D2B2B" transform="translate(0,0)"/>
<path d="" fill="#2E2C2D" transform="translate(0,0)"/>
<path d="" fill="#2D2A2B" transform="translate(0,0)"/>
<path d="" fill="#2D2B2B" transform="translate(0,0)"/>
<path d="" fill="#2D2D2D" transform="translate(0,0)"/>
<path d="" fill="#2C2D2D" transform="translate(0,0)"/>
<path d="" fill="#393838" transform="translate(0,0)"/>
<path d="" fill="#2E2C2C" transform="translate(0,0)"/>
<path d="" fill="#2D2C2D" transform="translate(0,0)"/>
<path d="" fill="#2E2D2D" transform="translate(0,0)"/>
<path d="" fill="#2F2C2E" transform="translate(0,0)"/>
<path d="" fill="#2C2C2B" transform="translate(0,0)"/>
<path d="" fill="#2A2929" transform="translate(0,0)"/>
<path d="" fill="#292A2A" transform="translate(0,0)"/>
<path d="" fill="#2B2929" transform="translate(0,0)"/>
<path d="" fill="#2D2C2D" transform="translate(0,0)"/>
<path d="" fill="#2F2C2A" transform="translate(0,0)"/>
<path d="" fill="#2C2C2B" transform="translate(0,0)"/>
<path d="" fill="#2F2E2E" transform="translate(0,0)"/>
<path d="" fill="#2E2D2C" transform="translate(0,0)"/>
<path d="" fill="#2B2A2A" transform="translate(0,0)"/>
<path d="" fill="#2B2A2A" transform="translate(0,0)"/>
<path d="" fill="#2E2C2C" transform="translate(0,0)"/>
<path d="" fill="#2C2C2C" transform="translate(0,0)"/>
<path d="" fill="#2C292A" transform="translate(0,0)"/>
<path d="" fill="#2E2B2C" transform="translate(0,0)"/>
<path d="" fill="#2D2C2B" transform="translate(0,0)"/>
<path d="" fill="#2C2B2C" transform="translate(0,0)"/>
<path d="" fill="#2C2A2A" transform="translate(0,0)"/>
<path d="" fill="#2B2B2B" transform="translate(0,0)"/>
<path d="" fill="#2C2C2C" transform="translate(0,0)"/>
<path d="" fill="#292926" transform="translate(0,0)"/>
<path d="" fill="#2B2A2B" transform="translate(0,0)"/>
<path d="" fill="#282624" transform="translate(0,0)"/>
<path d="" fill="#2B2A2A" transform="translate(0,0)"/>
<path d="" fill="#2E2C2D" transform="translate(0,0)"/>
<path d="" fill="#2A2C2B" transform="translate(0,0)"/>
<path d="" fill="#292827" transform="translate(0,0)"/>
<path d="" fill="#2C2B2C" transform="translate(0,0)"/>
<path d="" fill="#282426" transform="translate(0,0)"/>
<path d="" fill="#2B2A2A" transform="translate(0,0)"/>
<path d="" fill="#2C2C2E" transform="translate(0,0)"/>
<path d="" fill="#2B2B2A" transform="translate(0,0)"/>
<path d="" fill="#2A2829" transform="translate(0,0)"/>
<path d="" fill="#292727" transform="translate(0,0)"/>
<path d="" fill="#2B2C2B" transform="translate(0,0)"/>
<path d="" fill="#2B2829" transform="translate(0,0)"/>
<path d="" fill="#292626" transform="translate(0,0)"/>
<path d="" fill="#2E2B2C" transform="translate(0,0)"/>
<path d="" fill="#2C2C2C" transform="translate(0,0)"/>
<path d="" fill="#2D2B2C" transform="translate(0,0)"/>
<path d="" fill="#2B2B2B" transform="translate(0,0)"/>
<path d="" fill="#2E2A2C" transform="translate(0,0)"/>
<path d="" fill="#292826" transform="translate(0,0)"/>
<path d="" fill="#2C2C2B" transform="translate(0,0)"/>
<path d="" fill="#272828" transform="translate(0,0)"/>
<path d="" fill="#2C2C2B" transform="translate(0,0)"/>
<path d="" fill="#2A282B" transform="translate(0,0)"/>
<path d="" fill="#2B2928" transform="translate(0,0)"/>
<path d="" fill="#2B2D2B" transform="translate(0,0)"/>
<path d="" fill="#2D2D2B" transform="translate(0,0)"/>
<path d="" fill="#2D2C2A" transform="translate(0,0)"/>
<path d="" fill="#2D2B2B" transform="translate(0,0)"/>
<path d="" fill="#2C2D2D" transform="translate(0,0)"/>
<path d="" fill="#2E2C2A" transform="translate(0,0)"/>
<path d="" fill="#2B2A2A" transform="translate(0,0)"/>
<path d="" fill="#2B2A2A" transform="translate(0,0)"/>
<path d="" fill="#2B2A2B" transform="translate(0,0)"/>
<path d="" fill="#2D2C2A" transform="translate(0,0)"/>
<path d="" fill="#2E2B2C" transform="translate(0,0)"/>
<path d="" fill="#2A2826" transform="translate(0,0)"/>
<path d="" fill="#2A2728" transform="translate(0,0)"/>
<path d="" fill="#2A292A" transform="translate(0,0)"/>
<path d="" fill="#292928" transform="translate(0,0)"/>
<path d="" fill="#2A2929" transform="translate(0,0)"/>
<path d="" fill="#2B2C29" transform="translate(0,0)"/>
<path d="" fill="#2B2A29" transform="translate(0,0)"/>
<path d="" fill="#2D2B2C" transform="translate(0,0)"/>
<path d="" fill="#2A282A" transform="translate(0,0)"/>
<path d="" fill="#2A2928" transform="translate(0,0)"/>
<path d="" fill="#2B2B2C" transform="translate(0,0)"/>
<path d="" fill="#2A2928" transform="translate(0,0)"/>
<path d="" fill="#2A2624" transform="translate(0,0)"/>
<path d="" fill="#2B2929" transform="translate(0,0)"/>
<path d="" fill="#2C2A2A" transform="translate(0,0)"/>
<path d="" fill="#2B2B2A" transform="translate(0,0)"/>
<path d="" fill="#2B2A29" transform="translate(0,0)"/>
<path d="" fill="#2C2B2A" transform="translate(0,0)"/>
<path d="" fill="#292727" transform="translate(0,0)"/>
<path d="" fill="#2A2729" transform="translate(0,0)"/>
<path d="" fill="#2D2B2C" transform="translate(0,0)"/>
<path d="" fill="#2D292B" transform="translate(0,0)"/>
<path d="" fill="#2A2927" transform="translate(0,0)"/>
<path d="" fill="#29272A" transform="translate(0,0)"/>
<path d="" fill="#2B2B2C" transform="translate(0,0)"/>
<path d="" fill="#2E2D2D" transform="translate(0,0)"/>
<path d="" fill="#2D2C2C" transform="translate(0,0)"/>
<path d="" fill="#2E2C2E" transform="translate(0,0)"/>
<path d="" fill="#2E2B2D" transform="translate(0,0)"/>
<path d="" fill="#2A282B" transform="translate(0,0)"/>
<path d="" fill="#2F2E2E" transform="translate(0,0)"/>
<path d="" fill="#2E2C2D" transform="translate(0,0)"/>
<path d="" fill="#2C2A2A" transform="translate(0,0)"/>
<path d="" fill="#2B2D2D" transform="translate(0,0)"/>
<path d="" fill="#302D2C" transform="translate(0,0)"/>
<path d="" fill="#292928" transform="translate(0,0)"/>
<path d="" fill="#2E2D2E" transform="translate(0,0)"/>
<path d="" fill="#2C2D2F" transform="translate(0,0)"/>
<path d="" fill="#2E2C2E" transform="translate(0,0)"/>
<path d="" fill="#2A2C2C" transform="translate(0,0)"/>
<path d="" fill="#2E2F2F" transform="translate(0,0)"/>
<path d="" fill="#2C2A2A" transform="translate(0,0)"/>
<path d="" fill="#2C2C29" transform="translate(0,0)"/>
<path d="" fill="#2C2B2B" transform="translate(0,0)"/>
<path d="" fill="#2B2B2B" transform="translate(0,0)"/>
<path d="" fill="#2C2A2C" transform="translate(0,0)"/>
<path d="" fill="#2E2B2D" transform="translate(0,0)"/>
<path d="" fill="#292929" transform="translate(0,0)"/>
<path d="" fill="#2B2B2D" transform="translate(0,0)"/>
<path d="" fill="#302E2C" transform="translate(0,0)"/>
<path d="" fill="#2C2D2E" transform="translate(0,0)"/>
<path d="" fill="#2D2C2B" transform="translate(0,0)"/>
<path d="" fill="#282828" transform="translate(0,0)"/>
<path d="" fill="#2D2D2C" transform="translate(0,0)"/>
<path d="" fill="#2D2D2E" transform="translate(0,0)"/>
<path d="" fill="#2A2928" transform="translate(0,0)"/>
<path d="" fill="#302F2E" transform="translate(0,0)"/>
<path d="" fill="#2C2C2D" transform="translate(0,0)"/>
<path d="" fill="#2D2B2D" transform="translate(0,0)"/>
<path d="" fill="#2F2F2F" transform="translate(0,0)"/>
<path d="" fill="#2B2C2B" transform="translate(0,0)"/>
<path d="" fill="#2F2E2F" transform="translate(0,0)"/>
<path d="" fill="#31302E" transform="translate(0,0)"/>
<path d="" fill="#2C2C2C" transform="translate(0,0)"/>
<path d="" fill="#2F2E2E" transform="translate(0,0)"/>
<path d="" fill="#2E2E2F" transform="translate(0,0)"/>
<path d="" fill="#2E2C2B" transform="translate(0,0)"/>
<path d="" fill="#2D2C2E" transform="translate(0,0)"/>
<path d="" fill="#302E2E" transform="translate(0,0)"/>
<path d="" fill="#282727" transform="translate(0,0)"/>
<path d="" fill="#2C2A2D" transform="translate(0,0)"/>
<path d="" fill="#2A2A2A" transform="translate(0,0)"/>
<path d="" fill="#2C2C2B" transform="translate(0,0)"/>
<path d="" fill="#2C2A2D" transform="translate(0,0)"/>
<path d="" fill="#2D2C2C" transform="translate(0,0)"/>
<path d="" fill="#2C2A2B" transform="translate(0,0)"/>
<path d="" fill="#2D2F2D" transform="translate(0,0)"/>
<path d="" fill="#2E2E2F" transform="translate(0,0)"/>
<path d="" fill="#2A2C2C" transform="translate(0,0)"/>
<path d="" fill="#2D2B2B" transform="translate(0,0)"/>
<path d="" fill="#2E2F2D" transform="translate(0,0)"/>
<path d="" fill="#2C2A2D" transform="translate(0,0)"/>
<path d="" fill="#2A2A2C" transform="translate(0,0)"/>
<path d="" fill="#2B292D" transform="translate(0,0)"/>
<path d="" fill="#2D2D2C" transform="translate(0,0)"/>
<path d="" fill="#2E2D2E" transform="translate(0,0)"/>
<path d="" fill="#302D30" transform="translate(0,0)"/>
<path d="" fill="#2B2B2C" transform="translate(0,0)"/>
<path d="" fill="#2B2B2B" transform="translate(0,0)"/>
<path d="" fill="#2F2E2F" transform="translate(0,0)"/>
<path d="" fill="#302D2E" transform="translate(0,0)"/>
<path d="" fill="#292829" transform="translate(0,0)"/>
<path d="" fill="#2D2C2C" transform="translate(0,0)"/>
<path d="" fill="#2E2E2D" transform="translate(0,0)"/>
<path d="" fill="#2E2D2D" transform="translate(0,0)"/>
<path d="" fill="#2B2A2B" transform="translate(0,0)"/>
<path d="" fill="#302F31" transform="translate(0,0)"/>
<path d="" fill="#302E32" transform="translate(0,0)"/>
<path d="" fill="#2D2C2F" transform="translate(0,0)"/>
<path d="" fill="#2C2A2A" transform="translate(0,0)"/>
<path d="" fill="#2F2F2F" transform="translate(0,0)"/>
<path d="" fill="#302F30" transform="translate(0,0)"/>
<path d="" fill="#2F2E2F" transform="translate(0,0)"/>
<path d="" fill="#2B2A2C" transform="translate(0,0)"/>
<path d="" fill="#323233" transform="translate(0,0)"/>
<path d="" fill="#2F3131" transform="translate(0,0)"/>
<path d="" fill="#313030" transform="translate(0,0)"/>
<path d="" fill="#302F2F" transform="translate(0,0)"/>
<path d="" fill="#323333" transform="translate(0,0)"/>
<path d="" fill="#303031" transform="translate(0,0)"/>
<path d="" fill="#2F2F31" transform="translate(0,0)"/>
<path d="" fill="#2F2F2C" transform="translate(0,0)"/>
<path d="" fill="#323333" transform="translate(0,0)"/>
<path d="" fill="#313032" transform="translate(0,0)"/>
<path d="" fill="#5D5E5E" transform="translate(0,0)"/>
<path d="" fill="#323232" transform="translate(0,0)"/>
<path d="" fill="#323131" transform="translate(0,0)"/>
<path d="" fill="#373536" transform="translate(0,0)"/>
<path d="" fill="#393938" transform="translate(0,0)"/>
<path d="" fill="#2F312F" transform="translate(0,0)"/>
<path d="" fill="#313131" transform="translate(0,0)"/>
<path d="" fill="#323131" transform="translate(0,0)"/>
<path d="" fill="#33312F" transform="translate(0,0)"/>
<path d="" fill="#31302F" transform="translate(0,0)"/>
<path d="" fill="#313331" transform="translate(0,0)"/>
<path d="" fill="#2F302F" transform="translate(0,0)"/>
<path d="" fill="#323032" transform="translate(0,0)"/>
<path d="" fill="#30312F" transform="translate(0,0)"/>
<path d="" fill="#333030" transform="translate(0,0)"/>
<path d="" fill="#2E2D2F" transform="translate(0,0)"/>
<path d="" fill="#2E2E2E" transform="translate(0,0)"/>
<path d="" fill="#302E2D" transform="translate(0,0)"/>
<path d="" fill="#292C28" transform="translate(0,0)"/>
<path d="" fill="#303030" transform="translate(0,0)"/>
<path d="" fill="#2E2C30" transform="translate(0,0)"/>
<path d="" fill="#2E2D2D" transform="translate(0,0)"/>
<path d="" fill="#302E2D" transform="translate(0,0)"/>
<path d="" fill="#2C2B2B" transform="translate(0,0)"/>
<path d="" fill="#312E2F" transform="translate(0,0)"/>
<path d="" fill="#302D30" transform="translate(0,0)"/>
<path d="" fill="#2C2D30" transform="translate(0,0)"/>
<path d="" fill="#2D2C2D" transform="translate(0,0)"/>
<path d="" fill="#2E3030" transform="translate(0,0)"/>
<path d="" fill="#323031" transform="translate(0,0)"/>
<path d="" fill="#2E2E2C" transform="translate(0,0)"/>
<path d="" fill="#2D2B2A" transform="translate(0,0)"/>
<path d="" fill="#312F2F" transform="translate(0,0)"/>
<path d="" fill="#303431" transform="translate(0,0)"/>
<path d="" fill="#302E2E" transform="translate(0,0)"/>
<path d="" fill="#2F302F" transform="translate(0,0)"/>
<path d="" fill="#323030" transform="translate(0,0)"/>
<path d="" fill="#332F31" transform="translate(0,0)"/>
<path d="" fill="#322E31" transform="translate(0,0)"/>
<path d="" fill="#2F2F2E" transform="translate(0,0)"/>
<path d="" fill="#2F2D2F" transform="translate(0,0)"/>
<path d="" fill="#2D292A" transform="translate(0,0)"/>
<path d="" fill="#31302F" transform="translate(0,0)"/>
<path d="" fill="#302F2F" transform="translate(0,0)"/>
<path d="" fill="#2C292B" transform="translate(0,0)"/>
<path d="" fill="#312F30" transform="translate(0,0)"/>
<path d="" fill="#30302F" transform="translate(0,0)"/>
<path d="" fill="#2D2D2F" transform="translate(0,0)"/>
<path d="" fill="#2A2E2C" transform="translate(0,0)"/>
<path d="" fill="#2D2B2D" transform="translate(0,0)"/>
<path d="" fill="#2F2F2F" transform="translate(0,0)"/>
<path d="" fill="#2E2C2D" transform="translate(0,0)"/>
<path d="" fill="#2E2F2D" transform="translate(0,0)"/>
<path d="" fill="#2E2C2C" transform="translate(0,0)"/>
<path d="" fill="#2F2D2E" transform="translate(0,0)"/>
<path d="" fill="#2E2F2D" transform="translate(0,0)"/>
<path d="" fill="#2F2D2C" transform="translate(0,0)"/>
<path d="" fill="#2B2A2B" transform="translate(0,0)"/>
<path d="" fill="#2F2D2E" transform="translate(0,0)"/>
<path d="" fill="#2E302E" transform="translate(0,0)"/>
<path d="" fill="#2E2E2E" transform="translate(0,0)"/>
<path d="" fill="#2F2E2F" transform="translate(0,0)"/>
<path d="" fill="#2D2B2D" transform="translate(0,0)"/>
<path d="" fill="#2E2F2D" transform="translate(0,0)"/>
<path d="" fill="#2D2B2C" transform="translate(0,0)"/>
<path d="" fill="#302D2F" transform="translate(0,0)"/>
<path d="" fill="#2E2E2C" transform="translate(0,0)"/>
<path d="" fill="#2D2F2D" transform="translate(0,0)"/>
<path d="" fill="#2F2E30" transform="translate(0,0)"/>
<path d="" fill="#2B2826" transform="translate(0,0)"/>
<path d="" fill="#2C2D2D" transform="translate(0,0)"/>
<path d="" fill="#2C2C2B" transform="translate(0,0)"/>
<path d="" fill="#292629" transform="translate(0,0)"/>
<path d="" fill="#2D2D2C" transform="translate(0,0)"/>
<path d="" fill="#2D2E2E" transform="translate(0,0)"/>
<path d="" fill="#312E2F" transform="translate(0,0)"/>
<path d="" fill="#2F2C2E" transform="translate(0,0)"/>
<path d="" fill="#2C2B2E" transform="translate(0,0)"/>
<path d="" fill="#2E2D2E" transform="translate(0,0)"/>
<path d="" fill="#2E2D2B" transform="translate(0,0)"/>
<path d="" fill="#2A2929" transform="translate(0,0)"/>
<path d="" fill="#2B2A2A" transform="translate(0,0)"/>
<path d="" fill="#2B2C2E" transform="translate(0,0)"/>
<path d="" fill="#2D2B2C" transform="translate(0,0)"/>
<path d="" fill="#2D2F2F" transform="translate(0,0)"/>
<path d="" fill="#2F2E2D" transform="translate(0,0)"/>
<path d="" fill="#2E2D2C" transform="translate(0,0)"/>
<path d="" fill="#302F30" transform="translate(0,0)"/>
<path d="" fill="#302F2F" transform="translate(0,0)"/>
<path d="" fill="#2E2C2D" transform="translate(0,0)"/>
<path d="" fill="#2B2A2A" transform="translate(0,0)"/>
<path d="" fill="#2D2B2C" transform="translate(0,0)"/>
<path d="" fill="#2C2C2B" transform="translate(0,0)"/>
<path d="" fill="#2D2C2E" transform="translate(0,0)"/>
<path d="" fill="#2F2C2C" transform="translate(0,0)"/>
<path d="" fill="#2D2A2B" transform="translate(0,0)"/>
<path d="" fill="#2D2C2C" transform="translate(0,0)"/>
<path d="" fill="#2E2D2E" transform="translate(0,0)"/>
<path d="" fill="#2D2E2D" transform="translate(0,0)"/>
<path d="" fill="#2E2D2B" transform="translate(0,0)"/>
<path d="" fill="#2F2C2E" transform="translate(0,0)"/>
<path d="" fill="#2D2929" transform="translate(0,0)"/>
<path d="" fill="#302E2E" transform="translate(0,0)"/>
<path d="" fill="#2D2E2E" transform="translate(0,0)"/>
<path d="" fill="#2C2D2B" transform="translate(0,0)"/>
<path d="" fill="#29292A" transform="translate(0,0)"/>
<path d="" fill="#2E2D2F" transform="translate(0,0)"/>
<path d="" fill="#2A2928" transform="translate(0,0)"/>
<path d="" fill="#2E2E2E" transform="translate(0,0)"/>
<path d="" fill="#2C2E2D" transform="translate(0,0)"/>
<path d="" fill="#2B2A2B" transform="translate(0,0)"/>
<path d="" fill="#2E292B" transform="translate(0,0)"/>
<path d="" fill="#2D2D2D" transform="translate(0,0)"/>
<path d="" fill="#2F2C2C" transform="translate(0,0)"/>
<path d="" fill="#2A2C29" transform="translate(0,0)"/>
<path d="" fill="#302E2C" transform="translate(0,0)"/>
<path d="" fill="#2F2E2F" transform="translate(0,0)"/>
<path d="" fill="#2D2C2C" transform="translate(0,0)"/>
<path d="" fill="#312F30" transform="translate(0,0)"/>
<path d="" fill="#292827" transform="translate(0,0)"/>
<path d="" fill="#2F2E2E" transform="translate(0,0)"/>
<path d="" fill="#30302F" transform="translate(0,0)"/>
<path d="" fill="#2D2D2E" transform="translate(0,0)"/>
<path d="" fill="#2F302E" transform="translate(0,0)"/>
<path d="" fill="#2F2E30" transform="translate(0,0)"/>
<path d="" fill="#30312E" transform="translate(0,0)"/>
<path d="" fill="#303030" transform="translate(0,0)"/>
<path d="" fill="#343435" transform="translate(0,0)"/>
<path d="" fill="#4C4B4A" transform="translate(0,0)"/>
</svg>
